<svg id="svg" version="1.1" xmlns="http://www.w3.org/2000/svg" xmlns:xlink="http://www.w3.org/1999/xlink" width="400" height="396.7946014339941" viewBox="0, 0, 400,396.7946014339941"><g id="svgg"><path id="path0" d="M196.542 6.559 C 196.402 6.639,193.783 6.752,190.721 6.811 C 187.534 6.872,184.865 6.998,184.479 7.105 C 184.108 7.207,182.704 7.358,181.358 7.439 C 180.013 7.520,178.532 7.665,178.068 7.761 C 177.087 7.965,176.328 8.066,174.694 8.207 C 174.045 8.263,173.437 8.366,173.345 8.436 C 173.252 8.505,172.461 8.616,171.587 8.682 C 170.713 8.748,169.802 8.886,169.563 8.988 C 169.323 9.090,168.444 9.267,167.609 9.382 C 166.774 9.497,165.711 9.676,165.247 9.780 C 164.783 9.884,164.175 10.008,163.897 10.057 C 163.619 10.106,163.239 10.210,163.054 10.289 C 162.868 10.368,162.299 10.481,161.788 10.539 C 160.223 10.718,160.066 10.750,159.956 10.912 C 159.896 10.999,159.317 11.153,158.667 11.255 C 156.850 11.540,155.023 11.952,154.810 12.123 C 154.705 12.208,154.201 12.333,153.690 12.400 C 153.180 12.468,152.687 12.570,152.594 12.629 C 152.219 12.864,151.216 13.154,150.770 13.156 C 150.498 13.158,150.341 13.231,150.401 13.328 C 150.462 13.427,150.275 13.498,149.947 13.500 C 149.158 13.506,148.056 13.783,147.986 13.994 C 147.953 14.091,147.748 14.171,147.530 14.171 C 147.145 14.171,144.587 14.915,144.068 15.179 C 143.925 15.251,143.474 15.367,143.065 15.436 C 142.657 15.505,142.225 15.659,142.105 15.779 C 141.986 15.898,141.567 16.050,141.174 16.117 C 140.781 16.183,140.343 16.298,140.200 16.372 C 140.058 16.447,139.580 16.599,139.140 16.711 C 138.699 16.823,138.338 16.972,138.338 17.042 C 138.338 17.112,137.997 17.221,137.579 17.283 C 137.162 17.346,136.820 17.452,136.820 17.519 C 136.820 17.586,136.461 17.746,136.022 17.876 C 135.583 18.005,135.033 18.211,134.799 18.333 C 134.565 18.456,134.212 18.556,134.015 18.557 C 133.817 18.557,133.566 18.666,133.457 18.797 C 133.347 18.929,132.958 19.088,132.593 19.150 C 132.227 19.211,131.927 19.318,131.927 19.385 C 131.927 19.453,131.548 19.612,131.084 19.739 C 130.620 19.865,130.240 20.024,130.240 20.092 C 130.240 20.159,129.941 20.266,129.575 20.327 C 129.209 20.389,128.821 20.548,128.711 20.680 C 128.602 20.812,128.388 20.922,128.237 20.925 C 128.086 20.928,127.659 21.078,127.288 21.257 C 126.917 21.436,126.528 21.585,126.423 21.589 C 126.318 21.592,126.146 21.699,126.040 21.827 C 125.933 21.955,125.614 22.106,125.330 22.163 C 125.046 22.220,124.599 22.419,124.338 22.605 C 124.076 22.791,123.745 22.944,123.603 22.944 C 123.460 22.944,123.302 23.011,123.251 23.093 C 123.200 23.176,122.900 23.292,122.583 23.351 C 122.267 23.410,121.915 23.571,121.801 23.708 C 121.688 23.844,121.505 23.956,121.396 23.956 C 121.169 23.956,119.403 24.803,119.275 24.973 C 119.228 25.035,118.968 25.139,118.697 25.206 C 118.426 25.272,118.018 25.474,117.789 25.654 C 117.560 25.833,117.306 25.981,117.223 25.981 C 116.996 25.981,113.875 27.532,113.775 27.695 C 113.727 27.773,113.540 27.836,113.360 27.836 C 113.180 27.836,113.032 27.906,113.032 27.992 C 113.032 28.077,112.810 28.196,112.538 28.256 C 112.266 28.315,111.953 28.473,111.843 28.606 C 111.732 28.740,111.546 28.849,111.430 28.849 C 111.313 28.849,111.122 28.964,111.005 29.106 C 110.887 29.247,110.760 29.331,110.721 29.293 C 110.683 29.254,109.801 29.722,108.763 30.333 C 107.724 30.944,106.539 31.619,106.128 31.833 C 105.718 32.048,105.263 32.321,105.116 32.441 C 104.970 32.561,104.509 32.833,104.091 33.045 C 103.674 33.258,102.952 33.653,102.488 33.924 C 102.024 34.195,101.493 34.492,101.307 34.584 C 100.755 34.860,100.316 35.158,100.045 35.444 C 99.904 35.591,99.410 35.923,98.946 36.180 C 98.482 36.438,97.715 36.905,97.241 37.219 C 96.768 37.533,96.327 37.790,96.262 37.790 C 96.197 37.790,95.901 38.017,95.605 38.295 C 95.308 38.573,94.980 38.801,94.875 38.801 C 94.771 38.802,94.584 38.924,94.460 39.073 C 94.337 39.222,94.081 39.413,93.891 39.497 C 93.398 39.717,90.708 41.572,89.876 42.266 C 89.712 42.402,89.506 42.514,89.418 42.514 C 89.329 42.514,89.175 42.668,89.074 42.856 C 88.973 43.044,88.819 43.153,88.730 43.099 C 88.642 43.044,88.570 43.064,88.570 43.142 C 88.570 43.220,88.332 43.425,88.041 43.597 C 87.750 43.769,87.383 44.032,87.226 44.182 C 86.653 44.728,86.033 45.213,85.377 45.627 C 85.008 45.860,84.083 46.553,83.323 47.167 C 82.563 47.781,81.831 48.370,81.698 48.477 C 81.564 48.584,81.196 48.916,80.879 49.214 C 80.563 49.513,80.304 49.714,80.304 49.661 C 80.304 49.550,78.409 51.146,77.729 51.830 C 77.473 52.088,77.193 52.299,77.105 52.299 C 77.018 52.299,76.886 52.394,76.811 52.509 C 76.737 52.625,76.221 53.099,75.664 53.562 C 75.108 54.025,74.568 54.480,74.465 54.574 C 71.968 56.851,70.390 58.365,66.616 62.102 C 64.123 64.570,62.084 66.628,62.084 66.674 C 62.084 66.720,61.647 67.214,61.113 67.772 C 59.185 69.788,58.109 70.973,57.614 71.625 C 57.337 71.991,56.862 72.517,56.560 72.795 C 56.258 73.073,56.010 73.358,56.010 73.428 C 56.010 73.498,55.877 73.696,55.715 73.867 C 54.675 74.965,54.154 75.623,54.154 75.839 C 54.154 75.975,54.038 76.086,53.896 76.086 C 53.754 76.086,53.588 76.219,53.527 76.381 C 53.466 76.544,53.331 76.752,53.228 76.845 C 52.928 77.113,51.118 79.403,51.118 79.513 C 51.118 79.568,50.947 79.792,50.738 80.009 C 50.154 80.618,49.588 81.360,49.388 81.780 C 49.289 81.989,49.143 82.159,49.064 82.159 C 48.944 82.159,48.199 83.189,47.491 84.333 C 47.398 84.483,47.233 84.663,47.125 84.733 C 46.955 84.842,46.532 85.446,45.679 86.799 C 45.562 86.984,45.219 87.421,44.918 87.769 C 44.616 88.118,44.369 88.508,44.369 88.637 C 44.369 88.766,44.275 88.909,44.159 88.955 C 44.043 89.002,43.798 89.332,43.614 89.690 C 43.431 90.049,43.037 90.634,42.740 90.992 C 42.442 91.350,42.077 91.881,41.929 92.173 C 41.565 92.893,41.304 93.291,40.953 93.659 C 40.791 93.829,40.658 94.114,40.658 94.292 C 40.658 94.470,40.597 94.641,40.523 94.672 C 40.356 94.741,38.802 96.918,38.802 97.083 C 38.802 97.148,38.536 97.602,38.212 98.091 C 37.887 98.580,37.621 99.106,37.621 99.258 C 37.621 99.411,37.558 99.536,37.481 99.536 C 37.403 99.536,37.119 99.973,36.848 100.506 C 36.577 101.040,36.318 101.514,36.271 101.561 C 36.039 101.791,34.829 103.839,33.730 105.863 C 33.477 106.326,33.062 107.086,32.807 107.550 C 32.304 108.464,30.310 112.389,30.278 112.526 C 30.268 112.573,29.914 113.332,29.491 114.213 C 28.210 116.887,27.867 117.662,27.743 118.155 C 27.678 118.415,27.527 118.664,27.408 118.710 C 27.289 118.756,27.145 118.980,27.088 119.208 C 27.030 119.436,26.785 120.057,26.541 120.588 C 26.298 121.118,26.081 121.633,26.059 121.732 C 26.037 121.832,25.827 122.325,25.591 122.829 C 25.355 123.333,25.032 124.163,24.872 124.673 C 24.711 125.183,24.486 125.715,24.371 125.854 C 24.256 125.993,24.107 126.368,24.039 126.686 C 23.971 127.005,23.773 127.519,23.599 127.830 C 23.424 128.141,23.281 128.506,23.281 128.643 C 23.281 128.779,23.210 128.891,23.123 128.891 C 23.036 128.891,22.914 129.230,22.852 129.645 C 22.789 130.059,22.633 130.486,22.504 130.593 C 22.375 130.700,22.269 130.891,22.269 131.017 C 22.269 131.321,21.430 133.821,21.255 134.036 C 21.180 134.129,21.062 134.507,20.993 134.876 C 20.924 135.244,20.770 135.644,20.651 135.763 C 20.531 135.883,20.382 136.322,20.320 136.740 C 20.257 137.157,20.141 137.539,20.061 137.588 C 19.982 137.637,19.866 138.060,19.804 138.528 C 19.742 138.996,19.596 139.416,19.479 139.461 C 19.363 139.505,19.215 139.890,19.151 140.315 C 19.088 140.739,18.975 141.209,18.902 141.358 C 18.662 141.840,18.389 142.824,18.389 143.201 C 18.389 143.403,18.326 143.568,18.248 143.568 C 18.171 143.568,18.101 143.663,18.092 143.779 C 18.042 144.449,17.798 145.364,17.622 145.541 C 17.509 145.653,17.363 146.185,17.296 146.723 C 17.229 147.261,17.125 147.777,17.066 147.870 C 16.900 148.128,16.549 149.509,16.541 149.937 C 16.536 150.146,16.466 150.316,16.384 150.316 C 16.302 150.316,16.181 150.824,16.114 151.444 C 16.048 152.065,15.892 152.729,15.768 152.921 C 15.644 153.112,15.490 153.743,15.426 154.323 C 15.361 154.903,15.250 155.377,15.179 155.377 C 15.108 155.377,14.996 155.982,14.931 156.721 C 14.864 157.481,14.717 158.143,14.592 158.246 C 14.472 158.346,14.319 158.975,14.253 159.644 C 14.188 160.313,14.079 160.936,14.013 161.029 C 13.946 161.122,13.875 161.493,13.856 161.854 C 13.836 162.216,13.747 162.647,13.658 162.813 C 13.569 162.980,13.496 163.382,13.496 163.707 C 13.496 164.033,13.432 164.339,13.352 164.388 C 13.273 164.437,13.155 165.251,13.090 166.196 C 13.024 167.142,12.869 168.113,12.744 168.355 C 12.619 168.596,12.462 169.590,12.395 170.563 C 12.328 171.536,12.217 172.408,12.148 172.501 C 12.079 172.594,11.970 173.277,11.907 174.019 C 11.843 174.762,11.718 175.938,11.628 176.634 C 11.297 179.203,11.164 180.807,11.149 182.371 C 11.141 183.254,11.053 184.240,10.954 184.565 C 10.445 186.226,10.388 207.070,10.886 209.447 C 10.945 209.726,11.059 211.130,11.141 212.569 C 11.290 215.182,11.336 215.668,11.640 217.883 C 11.729 218.532,11.851 219.671,11.911 220.413 C 11.970 221.156,12.077 221.839,12.149 221.932 C 12.220 222.024,12.332 222.898,12.398 223.872 C 12.464 224.846,12.620 225.871,12.744 226.149 C 12.868 226.428,13.021 227.339,13.084 228.174 C 13.147 229.009,13.258 229.768,13.330 229.861 C 13.401 229.954,13.506 230.390,13.563 230.831 C 13.619 231.272,13.711 231.993,13.768 232.434 C 13.824 232.874,13.930 233.311,14.004 233.404 C 14.078 233.496,14.192 234.104,14.259 234.753 C 14.325 235.403,14.477 236.048,14.597 236.187 C 14.716 236.326,14.869 237.048,14.936 237.790 C 15.004 238.532,15.120 239.179,15.195 239.227 C 15.340 239.321,15.484 240.036,15.507 240.772 C 15.515 241.021,15.626 241.329,15.754 241.457 C 15.882 241.585,16.041 242.236,16.108 242.903 C 16.175 243.570,16.281 244.116,16.343 244.116 C 16.405 244.116,16.553 244.625,16.671 245.247 C 16.788 245.868,16.950 246.457,17.030 246.554 C 17.110 246.652,17.230 247.172,17.297 247.710 C 17.363 248.248,17.526 248.796,17.658 248.928 C 17.790 249.060,17.943 249.550,17.998 250.016 C 18.053 250.483,18.164 250.865,18.244 250.865 C 18.324 250.865,18.389 251.088,18.389 251.361 C 18.389 251.634,18.465 251.904,18.558 251.961 C 18.650 252.019,18.726 252.246,18.726 252.467 C 18.726 252.688,18.795 252.912,18.879 252.964 C 18.963 253.016,19.084 253.434,19.147 253.893 C 19.210 254.352,19.364 254.813,19.489 254.917 C 19.615 255.021,19.769 255.518,19.832 256.022 C 19.895 256.526,20.001 256.938,20.069 256.938 C 20.136 256.938,20.284 257.356,20.399 257.866 C 20.513 258.376,20.670 258.794,20.748 258.794 C 20.826 258.794,20.944 259.113,21.010 259.504 C 21.076 259.895,21.188 260.332,21.258 260.474 C 21.329 260.617,21.471 260.943,21.575 261.198 C 21.678 261.453,21.834 261.833,21.922 262.041 C 22.009 262.250,22.132 262.687,22.194 263.011 C 22.256 263.336,22.404 263.716,22.522 263.855 C 22.641 263.994,22.794 264.373,22.863 264.696 C 22.932 265.019,23.088 265.437,23.211 265.624 C 23.333 265.811,23.447 266.040,23.463 266.132 C 23.512 266.412,23.642 266.778,23.890 267.339 C 24.019 267.631,24.125 267.992,24.125 268.140 C 24.125 268.289,24.188 268.410,24.266 268.410 C 24.343 268.410,24.618 269.035,24.877 269.799 C 25.135 270.562,25.489 271.453,25.664 271.778 C 25.838 272.103,25.981 272.473,25.981 272.599 C 25.981 272.725,26.122 273.030,26.296 273.276 C 26.469 273.523,26.669 273.914,26.741 274.146 C 26.812 274.378,27.088 275.044,27.353 275.626 C 27.619 276.209,27.836 276.721,27.836 276.765 C 27.836 276.850,28.935 279.235,29.233 279.798 C 29.868 280.995,31.335 283.839,31.757 284.690 C 32.034 285.247,32.346 285.758,32.452 285.826 C 32.558 285.894,32.588 285.951,32.520 285.953 C 32.452 285.954,32.633 286.392,32.924 286.925 C 33.215 287.459,33.635 288.237,33.858 288.655 C 34.081 289.072,34.496 289.831,34.782 290.342 C 35.812 292.185,36.241 292.975,36.778 294.011 C 37.078 294.591,37.390 295.065,37.472 295.065 C 37.554 295.065,37.621 295.167,37.621 295.292 C 37.621 295.417,37.754 295.640,37.917 295.787 C 38.080 295.934,38.434 296.477,38.704 296.994 C 38.975 297.511,39.259 297.933,39.336 297.933 C 39.414 297.933,39.477 298.076,39.477 298.250 C 39.477 298.424,39.591 298.661,39.730 298.777 C 39.869 298.892,39.983 299.091,39.983 299.219 C 39.983 299.347,40.059 299.452,40.152 299.452 C 40.245 299.452,40.321 299.566,40.321 299.705 C 40.321 299.844,40.396 299.958,40.489 299.958 C 40.582 299.958,40.658 300.057,40.658 300.179 C 40.658 300.301,40.793 300.547,40.959 300.727 C 41.218 301.010,42.601 303.098,43.104 303.968 C 43.197 304.129,43.506 304.563,43.792 304.935 C 44.077 305.306,44.454 305.856,44.629 306.158 C 44.805 306.459,45.008 306.706,45.081 306.706 C 45.153 306.706,45.213 306.810,45.213 306.938 C 45.213 307.065,45.479 307.460,45.803 307.814 C 46.128 308.169,46.394 308.541,46.394 308.642 C 46.394 308.742,46.622 309.073,46.900 309.378 C 47.178 309.683,47.406 309.974,47.406 310.024 C 47.406 310.074,47.577 310.325,47.786 310.581 C 47.995 310.836,48.279 311.220,48.418 311.434 C 48.558 311.648,48.785 311.950,48.925 312.105 C 49.064 312.260,49.253 312.502,49.346 312.641 C 49.927 313.516,50.835 314.635,50.965 314.635 C 51.049 314.635,51.118 314.751,51.118 314.894 C 51.118 315.036,51.232 315.196,51.371 315.249 C 51.510 315.302,51.624 315.435,51.624 315.544 C 51.624 315.652,51.833 315.976,52.088 316.264 C 53.011 317.305,53.480 317.877,53.480 317.965 C 53.480 318.015,53.650 318.218,53.859 318.416 C 54.068 318.615,54.504 319.111,54.829 319.518 C 55.590 320.472,56.333 321.345,56.811 321.845 C 57.020 322.064,57.191 322.287,57.191 322.342 C 57.191 322.396,57.362 322.606,57.571 322.807 C 57.779 323.008,58.482 323.768,59.131 324.497 C 59.781 325.225,60.692 326.244,61.156 326.760 C 62.784 328.573,70.302 336.061,70.494 336.061 C 70.600 336.061,70.687 336.131,70.687 336.217 C 70.687 336.403,70.794 336.510,72.292 337.832 C 72.923 338.389,73.940 339.318,74.552 339.896 C 75.164 340.475,75.719 340.950,75.785 340.951 C 75.852 340.952,76.156 341.200,76.462 341.501 C 76.768 341.803,77.894 342.779,78.963 343.671 C 80.032 344.563,81.032 345.417,81.184 345.569 C 81.336 345.721,81.542 345.846,81.641 345.846 C 81.741 345.846,81.824 345.903,81.826 345.972 C 81.828 346.042,82.245 346.397,82.754 346.761 C 83.262 347.125,83.678 347.486,83.678 347.562 C 83.678 347.639,83.782 347.701,83.910 347.701 C 84.038 347.701,84.233 347.810,84.343 347.943 C 84.619 348.276,87.191 350.232,87.353 350.232 C 87.424 350.232,87.609 350.365,87.763 350.527 C 88.231 351.021,89.914 352.256,90.118 352.256 C 90.191 352.256,90.525 352.522,90.859 352.847 C 91.194 353.172,91.540 353.437,91.628 353.437 C 91.717 353.437,91.949 353.585,92.143 353.766 C 92.337 353.947,92.758 354.220,93.079 354.372 C 93.399 354.524,93.788 354.762,93.942 354.900 C 94.557 355.453,96.067 356.474,96.268 356.474 C 96.386 356.474,96.543 356.578,96.618 356.705 C 96.692 356.832,97.094 357.108,97.512 357.318 C 97.929 357.527,98.327 357.794,98.395 357.911 C 98.464 358.028,98.711 358.172,98.946 358.230 C 99.181 358.289,99.504 358.445,99.665 358.577 C 100.594 359.339,101.834 360.186,102.020 360.186 C 102.138 360.186,102.235 360.256,102.235 360.343 C 102.235 360.503,102.891 360.786,103.121 360.725 C 103.191 360.707,103.248 360.797,103.248 360.926 C 103.248 361.056,103.444 361.210,103.684 361.271 C 103.924 361.331,104.280 361.529,104.475 361.711 C 104.670 361.893,104.929 362.041,105.051 362.041 C 105.172 362.041,105.272 362.111,105.272 362.197 C 105.272 362.282,105.493 362.401,105.764 362.460 C 106.035 362.519,106.295 362.670,106.343 362.795 C 106.391 362.920,106.663 363.073,106.948 363.135 C 107.232 363.198,107.465 363.319,107.465 363.404 C 107.465 363.490,107.548 363.560,107.650 363.560 C 107.752 363.560,108.041 363.706,108.293 363.886 C 108.545 364.065,108.955 364.263,109.205 364.326 C 109.454 364.389,109.658 364.508,109.658 364.592 C 109.658 364.676,110.133 364.971,110.713 365.248 C 111.293 365.525,111.881 365.826,112.020 365.915 C 112.159 366.005,112.615 366.235,113.032 366.425 C 113.450 366.615,114.056 366.922,114.379 367.105 C 114.703 367.289,115.093 367.440,115.247 367.440 C 115.401 367.440,115.567 367.544,115.616 367.671 C 115.665 367.798,115.919 367.956,116.180 368.022 C 116.442 368.088,116.695 368.196,116.742 368.263 C 116.790 368.329,117.284 368.594,117.841 368.850 C 118.397 369.107,118.967 369.388,119.106 369.475 C 119.245 369.563,119.549 369.710,119.781 369.802 C 120.013 369.895,120.334 370.047,120.495 370.139 C 120.657 370.232,120.893 370.308,121.021 370.308 C 121.149 370.308,121.447 370.460,121.682 370.645 C 121.918 370.831,122.251 370.985,122.422 370.988 C 122.593 370.991,123.037 371.180,123.408 371.409 C 123.779 371.637,124.216 371.825,124.378 371.825 C 124.540 371.826,124.673 371.895,124.673 371.980 C 124.673 372.065,124.971 372.184,125.335 372.246 C 125.699 372.307,126.035 372.459,126.083 372.582 C 126.130 372.706,126.418 372.861,126.723 372.928 C 127.028 372.995,127.393 373.107,127.536 373.176 C 127.678 373.246,128.124 373.464,128.527 373.661 C 128.930 373.858,129.349 374.019,129.457 374.019 C 129.566 374.019,129.920 374.161,130.243 374.334 C 130.566 374.508,131.077 374.703,131.377 374.769 C 131.678 374.835,131.967 374.959,132.020 375.045 C 132.073 375.130,132.229 375.200,132.367 375.200 C 132.506 375.200,132.930 375.351,133.311 375.535 C 133.692 375.719,134.258 375.917,134.568 375.976 C 134.879 376.034,135.133 376.139,135.133 376.209 C 135.133 376.280,135.493 376.435,135.934 376.554 C 136.375 376.673,136.819 376.835,136.921 376.913 C 137.023 376.992,137.456 377.103,137.882 377.162 C 138.308 377.220,138.694 377.367,138.740 377.488 C 138.787 377.608,139.171 377.759,139.594 377.823 C 140.017 377.886,140.363 378.005,140.363 378.087 C 140.363 378.170,140.496 378.238,140.658 378.240 C 140.975 378.242,142.009 378.581,142.331 378.788 C 142.439 378.858,142.894 378.965,143.342 379.026 C 143.789 379.087,144.253 379.236,144.373 379.355 C 144.493 379.475,144.873 379.620,145.218 379.677 C 145.563 379.733,145.997 379.841,146.183 379.915 C 147.069 380.271,148.783 380.740,149.726 380.884 C 150.097 380.940,150.446 381.055,150.500 381.139 C 150.555 381.223,150.802 381.313,151.049 381.339 C 151.296 381.365,151.548 381.437,151.610 381.499 C 151.672 381.561,151.895 381.611,152.106 381.611 C 152.317 381.611,152.532 381.680,152.584 381.763 C 152.635 381.847,153.152 381.969,153.732 382.034 C 154.312 382.100,154.901 382.250,155.040 382.368 C 155.179 382.486,155.749 382.637,156.305 382.704 C 156.862 382.770,157.394 382.884,157.486 382.957 C 157.579 383.030,157.921 383.133,158.245 383.186 C 159.487 383.388,160.023 383.514,160.186 383.640 C 160.278 383.712,160.962 383.825,161.704 383.892 C 162.446 383.959,163.141 384.083,163.247 384.168 C 163.483 384.357,164.321 384.530,166.849 384.912 C 167.174 384.961,168.047 385.117,168.790 385.260 C 169.532 385.403,170.936 385.623,171.911 385.750 C 172.885 385.876,174.012 386.062,174.416 386.162 C 175.354 386.395,177.728 386.647,180.936 386.854 C 182.328 386.944,183.771 387.097,184.142 387.194 C 186.375 387.780,204.749 388.253,209.785 387.853 C 210.898 387.765,213.100 387.647,214.677 387.591 C 216.255 387.535,217.810 387.407,218.134 387.307 C 218.458 387.207,219.977 387.026,221.508 386.905 C 225.307 386.605,227.508 386.369,228.511 386.155 C 228.975 386.056,230.114 385.872,231.042 385.746 C 233.237 385.449,235.801 385.011,236.440 384.825 C 236.719 384.744,237.402 384.629,237.959 384.569 C 238.515 384.509,239.199 384.358,239.477 384.235 C 239.755 384.111,240.515 383.957,241.164 383.891 C 241.814 383.825,242.421 383.712,242.514 383.640 C 242.677 383.514,243.212 383.389,244.454 383.186 C 244.779 383.133,245.120 383.031,245.213 382.960 C 245.306 382.888,245.799 382.776,246.310 382.711 C 246.820 382.645,247.389 382.496,247.575 382.379 C 247.760 382.262,248.368 382.110,248.925 382.041 C 249.481 381.972,250.013 381.858,250.105 381.787 C 250.198 381.716,250.555 381.615,250.898 381.562 C 251.241 381.510,251.773 381.351,252.079 381.211 C 252.385 381.070,253.008 380.903,253.462 380.839 C 253.917 380.774,254.486 380.618,254.727 380.490 C 254.969 380.363,255.451 380.211,255.799 380.154 C 256.147 380.097,256.432 379.983,256.432 379.903 C 256.432 379.822,256.641 379.755,256.896 379.754 C 257.514 379.753,258.625 379.437,258.625 379.263 C 258.625 379.187,259.002 379.074,259.462 379.013 C 259.922 378.952,260.344 378.828,260.399 378.738 C 260.455 378.648,260.682 378.574,260.903 378.574 C 261.124 378.574,261.351 378.499,261.409 378.406 C 261.466 378.313,261.694 378.237,261.915 378.237 C 262.136 378.237,262.358 378.170,262.409 378.087 C 262.460 378.005,262.787 377.886,263.136 377.822 C 263.485 377.758,263.930 377.603,264.125 377.478 C 264.321 377.352,264.758 377.197,265.097 377.134 C 265.437 377.070,265.756 376.951,265.807 376.868 C 265.858 376.786,266.031 376.719,266.191 376.719 C 266.352 376.719,266.772 376.571,267.125 376.391 C 267.479 376.211,268.007 376.012,268.300 375.950 C 268.592 375.887,268.908 375.779,269.000 375.709 C 269.093 375.639,269.473 375.487,269.844 375.371 C 270.215 375.255,270.591 375.093,270.679 375.011 C 270.767 374.930,270.957 374.862,271.101 374.861 C 271.245 374.861,271.742 374.673,272.206 374.445 C 272.670 374.217,273.137 374.028,273.244 374.025 C 273.352 374.022,273.769 373.857,274.172 373.658 C 275.053 373.224,275.383 373.091,276.214 372.837 C 276.563 372.730,276.815 372.589,276.774 372.522 C 276.733 372.456,276.839 372.392,277.009 372.379 C 277.179 372.366,277.663 372.199,278.085 372.007 C 278.506 371.815,278.922 371.658,279.008 371.658 C 279.095 371.658,279.256 371.549,279.367 371.415 C 279.477 371.282,279.771 371.128,280.020 371.073 C 280.269 371.018,281.004 370.709,281.653 370.387 C 282.303 370.065,282.920 369.802,283.024 369.802 C 283.129 369.802,283.305 369.693,283.416 369.560 C 283.526 369.426,283.839 369.268,284.111 369.209 C 284.383 369.149,284.606 369.044,284.606 368.976 C 284.606 368.908,284.871 368.748,285.196 368.621 C 285.521 368.493,285.787 368.336,285.787 368.271 C 285.787 368.206,286.045 368.104,286.361 368.045 C 286.677 367.985,286.974 367.835,287.022 367.710 C 287.070 367.585,287.373 367.433,287.696 367.372 C 288.019 367.312,288.372 367.155,288.481 367.025 C 288.589 366.894,288.900 366.738,289.172 366.678 C 289.444 366.618,289.667 366.506,289.667 366.428 C 289.667 366.350,289.894 366.236,290.171 366.175 C 290.448 366.114,290.716 365.998,290.766 365.917 C 290.816 365.836,291.330 365.530,291.907 365.237 C 292.484 364.944,292.995 364.656,293.041 364.596 C 293.153 364.452,294.021 363.949,294.601 363.692 C 294.857 363.578,295.065 363.432,295.065 363.367 C 295.065 363.302,295.293 363.199,295.570 363.138 C 295.848 363.077,296.133 362.937,296.203 362.828 C 296.273 362.718,296.767 362.411,297.301 362.146 C 297.834 361.881,298.271 361.603,298.271 361.529 C 298.271 361.454,298.499 361.343,298.777 361.282 C 299.055 361.221,299.283 361.115,299.283 361.047 C 299.283 360.979,299.549 360.819,299.873 360.692 C 300.198 360.564,300.464 360.414,300.464 360.357 C 300.464 360.300,300.730 360.157,301.054 360.040 C 301.379 359.922,301.645 359.760,301.645 359.680 C 301.645 359.599,301.778 359.491,301.940 359.438 C 302.102 359.386,302.474 359.118,302.766 358.844 C 303.059 358.569,303.501 358.294,303.750 358.231 C 303.999 358.169,304.241 358.018,304.288 357.897 C 304.334 357.775,304.594 357.627,304.864 357.568 C 305.135 357.508,305.356 357.390,305.356 357.304 C 305.356 357.219,305.470 357.149,305.608 357.149 C 305.746 357.149,305.954 356.997,306.070 356.811 C 306.186 356.626,306.371 356.474,306.481 356.474 C 306.590 356.474,306.906 356.284,307.181 356.052 C 307.457 355.820,307.767 355.631,307.869 355.631 C 307.972 355.631,308.056 355.555,308.056 355.462 C 308.056 355.369,308.170 355.293,308.309 355.293 C 308.448 355.293,308.714 355.141,308.899 354.956 C 309.085 354.770,309.294 354.617,309.363 354.616 C 309.433 354.614,309.755 354.376,310.080 354.087 C 310.405 353.798,310.898 353.461,311.177 353.337 C 311.455 353.214,311.615 353.110,311.531 353.107 C 311.448 353.103,311.979 352.704,312.712 352.220 C 313.445 351.737,314.083 351.297,314.129 351.244 C 314.175 351.191,314.726 350.775,315.352 350.320 C 315.978 349.865,316.491 349.431,316.491 349.356 C 316.491 349.281,316.586 349.220,316.702 349.220 C 316.818 349.219,317.140 349.029,317.419 348.796 C 317.697 348.564,318.077 348.257,318.262 348.114 C 318.448 347.972,318.827 347.663,319.106 347.428 C 319.384 347.193,319.802 346.874,320.034 346.719 C 320.659 346.300,323.652 343.785,323.717 343.623 C 323.748 343.546,323.881 343.484,324.012 343.484 C 324.144 343.484,324.251 343.417,324.251 343.335 C 324.251 343.254,324.650 342.882,325.137 342.509 C 325.624 342.136,326.421 341.452,326.908 340.988 C 327.396 340.525,327.794 340.185,327.794 340.232 C 327.794 340.280,328.086 340.025,328.442 339.666 C 328.798 339.307,329.652 338.523,330.340 337.923 C 331.826 336.627,341.491 326.955,342.218 326.036 C 342.497 325.684,343.104 325.005,343.568 324.528 C 344.475 323.595,345.361 322.594,346.436 321.287 C 346.807 320.836,347.244 320.331,347.406 320.166 C 347.569 320.000,347.701 319.831,347.701 319.788 C 347.701 319.746,347.872 319.528,348.081 319.303 C 348.691 318.647,349.109 318.144,349.719 317.334 C 350.033 316.917,350.372 316.499,350.472 316.407 C 350.824 316.080,351.582 314.993,351.582 314.815 C 351.582 314.716,351.690 314.635,351.823 314.635 C 351.956 314.635,352.108 314.502,352.160 314.340 C 352.212 314.178,352.484 313.779,352.765 313.454 C 353.045 313.129,353.482 312.560,353.735 312.189 C 353.989 311.818,354.253 311.489,354.323 311.458 C 354.393 311.427,354.450 311.307,354.450 311.192 C 354.450 311.077,354.639 310.804,354.871 310.586 C 355.103 310.368,355.293 310.132,355.293 310.061 C 355.293 309.990,355.521 309.682,355.800 309.377 C 356.079 309.072,356.349 308.691,356.399 308.532 C 356.450 308.372,356.715 308.002,356.989 307.709 C 357.262 307.416,357.486 307.071,357.486 306.941 C 357.486 306.812,357.546 306.706,357.619 306.706 C 357.691 306.706,357.892 306.468,358.064 306.177 C 358.236 305.885,358.499 305.511,358.648 305.345 C 359.146 304.793,359.275 304.602,359.514 304.061 C 359.644 303.766,359.811 303.562,359.884 303.607 C 359.957 303.652,360.017 303.577,360.017 303.439 C 360.017 303.302,360.207 302.964,360.439 302.688 C 360.671 302.412,360.860 302.103,360.860 302.000 C 360.860 301.898,360.935 301.814,361.026 301.814 C 361.117 301.814,361.239 301.624,361.297 301.392 C 361.355 301.160,361.469 300.970,361.550 300.970 C 361.630 300.970,361.835 300.685,362.005 300.337 C 362.544 299.236,362.784 298.858,363.478 298.018 C 363.708 297.739,363.897 297.379,363.897 297.216 C 363.897 297.054,363.975 296.921,364.070 296.921 C 364.165 296.921,364.321 296.750,364.416 296.542 C 364.511 296.333,364.773 295.858,364.997 295.487 C 365.222 295.116,365.641 294.338,365.929 293.758 C 366.217 293.178,366.523 292.704,366.609 292.704 C 366.695 292.704,366.765 292.549,366.765 292.361 C 366.765 292.172,366.872 291.977,367.003 291.927 C 367.133 291.877,367.332 291.613,367.445 291.342 C 367.557 291.070,367.700 290.848,367.761 290.848 C 367.822 290.848,367.963 290.639,368.075 290.384 C 368.187 290.129,368.463 289.597,368.688 289.203 C 368.914 288.809,369.058 288.486,369.009 288.486 C 368.959 288.486,369.106 288.239,369.336 287.938 C 369.565 287.636,369.812 287.199,369.884 286.968 C 369.956 286.736,370.157 286.344,370.330 286.098 C 370.503 285.852,370.645 285.529,370.645 285.381 C 370.645 285.233,370.715 285.112,370.801 285.112 C 370.886 285.112,371.006 284.884,371.067 284.607 C 371.128 284.329,371.293 284.037,371.433 283.959 C 371.573 283.880,371.676 283.764,371.663 283.700 C 371.630 283.550,372.531 281.680,372.691 281.567 C 372.757 281.520,372.867 281.254,372.935 280.977 C 373.003 280.699,373.199 280.291,373.370 280.070 C 373.542 279.849,373.682 279.569,373.682 279.447 C 373.682 279.326,373.906 278.796,374.179 278.269 C 374.453 277.742,374.724 277.092,374.783 276.825 C 374.842 276.558,374.954 276.339,375.032 276.339 C 375.110 276.339,375.264 276.066,375.374 275.732 C 375.485 275.399,375.680 274.924,375.808 274.678 C 375.937 274.432,376.042 274.095,376.043 273.930 C 376.043 273.764,376.153 273.587,376.287 273.536 C 376.420 273.485,376.582 273.205,376.645 272.914 C 376.709 272.623,376.821 272.269,376.894 272.127 C 377.306 271.325,377.900 269.887,377.900 269.691 C 377.900 269.566,378.008 269.374,378.139 269.264 C 378.271 269.155,378.430 268.766,378.492 268.400 C 378.554 268.034,378.673 267.735,378.758 267.735 C 378.843 267.735,378.912 267.619,378.912 267.477 C 378.912 267.334,379.038 266.936,379.192 266.591 C 379.346 266.246,379.482 265.926,379.495 265.879 C 379.640 265.362,379.837 264.830,380.106 264.236 C 380.284 263.843,380.430 263.411,380.430 263.276 C 380.430 263.142,380.506 262.984,380.599 262.927 C 380.692 262.870,380.768 262.655,380.768 262.451 C 380.768 262.246,380.920 261.795,381.105 261.448 C 381.291 261.102,381.390 260.818,381.325 260.818 C 381.260 260.818,381.297 260.727,381.409 260.616 C 381.520 260.504,381.611 260.238,381.611 260.023 C 381.611 259.808,381.687 259.482,381.780 259.298 C 381.873 259.113,382.024 258.812,382.117 258.627 C 382.210 258.443,382.286 258.139,382.286 257.953 C 382.286 257.766,382.353 257.613,382.436 257.613 C 382.518 257.613,382.635 257.281,382.696 256.875 C 382.756 256.470,382.955 255.847,383.137 255.490 C 383.318 255.134,383.467 254.673,383.467 254.466 C 383.467 254.259,383.534 254.048,383.616 253.998 C 383.698 253.947,383.814 253.580,383.874 253.182 C 383.934 252.784,384.089 252.252,384.220 252.000 C 384.351 251.748,384.510 251.180,384.574 250.739 C 384.638 250.298,384.747 249.861,384.816 249.768 C 385.006 249.513,385.315 248.477,385.358 247.954 C 385.379 247.699,385.448 247.491,385.512 247.491 C 385.575 247.491,385.681 247.016,385.747 246.436 C 385.812 245.856,385.953 245.275,386.058 245.145 C 386.232 244.931,386.373 244.422,386.833 242.345 C 387.390 239.832,387.738 238.352,387.946 237.614 C 388.078 237.146,388.259 236.311,388.348 235.758 C 388.724 233.432,389.048 231.746,389.150 231.581 C 389.210 231.484,389.356 230.640,389.474 229.705 C 389.592 228.770,389.774 227.625,389.878 227.162 C 390.123 226.067,390.359 224.264,390.572 221.847 C 390.666 220.780,390.850 219.528,390.982 219.064 C 391.114 218.600,391.267 217.081,391.322 215.690 C 391.377 214.298,391.489 213.007,391.571 212.822 C 391.952 211.961,392.108 189.687,391.769 184.563 C 391.282 177.187,391.182 176.092,390.924 175.285 C 390.820 174.960,390.660 173.745,390.569 172.585 C 390.398 170.391,390.188 168.766,389.873 167.187 C 389.771 166.677,389.580 165.576,389.449 164.741 C 389.108 162.564,388.589 159.830,388.484 159.658 C 388.435 159.577,388.347 159.029,388.288 158.439 C 388.229 157.850,388.078 157.166,387.951 156.921 C 387.824 156.675,387.665 155.961,387.598 155.333 C 387.531 154.705,387.409 154.150,387.327 154.100 C 387.245 154.049,387.178 153.751,387.178 153.437 C 387.178 153.124,387.111 152.825,387.028 152.774 C 386.946 152.723,386.836 152.434,386.785 152.131 C 386.467 150.248,386.292 149.536,386.092 149.308 C 385.967 149.167,385.810 148.561,385.742 147.961 C 385.674 147.362,385.563 146.755,385.495 146.612 C 385.267 146.129,384.675 144.163,384.555 143.484 C 384.489 143.113,384.375 142.732,384.301 142.638 C 384.227 142.544,384.074 142.088,383.961 141.626 C 383.848 141.163,383.701 140.709,383.634 140.616 C 383.568 140.523,383.461 140.105,383.397 139.688 C 383.333 139.270,383.181 138.776,383.059 138.589 C 382.936 138.402,382.779 137.987,382.708 137.666 C 382.638 137.346,382.522 136.968,382.450 136.825 C 382.378 136.683,382.222 136.225,382.103 135.808 C 381.985 135.390,381.835 134.973,381.771 134.880 C 381.707 134.787,381.605 134.434,381.544 134.095 C 381.483 133.757,381.330 133.394,381.203 133.289 C 381.077 133.184,380.922 132.760,380.861 132.348 C 380.799 131.935,380.692 131.563,380.623 131.520 C 380.554 131.478,380.392 131.058,380.264 130.589 C 380.136 130.119,379.970 129.734,379.894 129.734 C 379.818 129.734,379.753 129.563,379.750 129.355 C 379.747 129.146,379.558 128.596,379.330 128.132 C 379.102 127.668,378.914 127.155,378.913 126.993 C 378.913 126.830,378.846 126.698,378.765 126.698 C 378.684 126.698,378.571 126.404,378.513 126.045 C 378.456 125.686,378.294 125.297,378.154 125.181 C 378.014 125.064,377.900 124.860,377.900 124.728 C 377.900 124.595,377.756 124.167,377.581 123.778 C 377.406 123.389,377.103 122.714,376.907 122.278 C 376.710 121.843,376.550 121.378,376.550 121.245 C 376.550 121.112,376.436 120.908,376.297 120.793 C 376.158 120.677,376.044 120.473,376.044 120.340 C 376.044 120.206,375.854 119.682,375.622 119.174 C 375.390 118.667,375.200 118.179,375.200 118.089 C 375.200 117.999,375.133 117.925,375.050 117.925 C 374.967 117.925,374.848 117.721,374.786 117.471 C 374.723 117.222,374.525 116.811,374.346 116.560 C 374.166 116.308,374.019 115.985,374.019 115.842 C 374.019 115.700,373.949 115.540,373.864 115.487 C 373.778 115.434,373.657 115.158,373.595 114.875 C 373.532 114.591,373.382 114.321,373.261 114.275 C 373.140 114.228,372.993 113.935,372.934 113.624 C 372.876 113.312,372.773 113.033,372.707 113.003 C 372.570 112.941,371.923 111.675,371.666 110.966 C 371.573 110.711,371.423 110.502,371.332 110.502 C 371.241 110.502,371.117 110.236,371.056 109.911 C 370.995 109.587,370.893 109.321,370.829 109.321 C 370.765 109.321,370.617 109.055,370.500 108.730 C 370.382 108.406,370.215 108.140,370.128 108.140 C 370.041 108.140,369.970 108.026,369.970 107.887 C 369.970 107.629,369.135 105.937,368.929 105.778 C 368.867 105.730,368.763 105.476,368.697 105.215 C 368.631 104.953,368.473 104.699,368.346 104.650 C 368.219 104.601,368.115 104.431,368.115 104.272 C 368.115 104.113,367.811 103.576,367.440 103.079 C 367.069 102.581,366.765 102.082,366.765 101.970 C 366.765 101.857,366.651 101.722,366.512 101.668 C 366.373 101.615,366.259 101.473,366.259 101.354 C 366.259 101.093,365.470 99.561,365.142 99.185 C 365.014 99.039,364.909 98.830,364.909 98.721 C 364.909 98.613,364.776 98.377,364.614 98.199 C 364.033 97.559,363.909 97.366,363.801 96.936 C 363.741 96.696,363.622 96.499,363.537 96.499 C 363.452 96.499,363.312 96.313,363.225 96.086 C 362.996 95.482,361.674 93.463,361.508 93.463 C 361.430 93.463,361.367 93.362,361.367 93.239 C 361.367 93.115,360.911 92.362,360.354 91.564 C 359.798 90.766,359.342 90.066,359.342 90.009 C 359.342 89.895,359.222 89.736,358.588 89.010 C 358.353 88.741,358.161 88.456,358.161 88.376 C 358.161 88.297,357.746 87.681,357.238 87.009 C 355.949 85.302,356.076 85.483,355.281 84.241 C 355.094 83.948,354.830 83.666,354.695 83.614 C 354.560 83.562,354.450 83.403,354.450 83.261 C 354.450 83.119,354.374 83.003,354.281 83.003 C 354.188 83.003,354.112 82.903,354.112 82.780 C 354.112 82.658,353.922 82.393,353.690 82.191 C 353.458 81.989,353.269 81.747,353.269 81.653 C 353.269 81.559,353.043 81.246,352.768 80.957 C 352.492 80.669,352.221 80.290,352.166 80.115 C 352.110 79.941,352.007 79.798,351.936 79.798 C 351.865 79.798,351.572 79.469,351.284 79.068 C 350.755 78.332,350.057 77.478,349.515 76.905 C 349.353 76.733,349.220 76.546,349.220 76.489 C 349.220 76.391,348.911 76.023,348.081 75.129 C 347.872 74.905,347.701 74.684,347.701 74.639 C 347.701 74.593,347.474 74.334,347.195 74.062 C 346.917 73.789,346.688 73.507,346.686 73.435 C 346.685 73.362,346.483 73.113,346.238 72.881 C 345.994 72.649,345.380 71.941,344.875 71.309 C 344.370 70.676,343.851 70.117,343.720 70.067 C 343.590 70.017,343.484 69.915,343.484 69.840 C 343.484 69.765,343.237 69.439,342.935 69.115 C 340.880 66.907,338.334 64.245,337.365 63.292 C 336.738 62.674,335.902 61.841,335.510 61.442 C 335.117 61.043,334.461 60.398,334.053 60.008 C 333.644 59.619,332.846 58.844,332.279 58.288 C 331.712 57.731,330.615 56.706,329.840 56.010 C 329.065 55.314,328.117 54.450,327.733 54.089 C 327.349 53.728,326.504 53.009,325.854 52.490 C 324.788 51.640,323.865 50.852,323.336 50.340 C 322.999 50.015,321.222 48.587,321.154 48.587 C 321.118 48.587,320.798 48.321,320.444 47.997 C 320.089 47.672,319.700 47.406,319.579 47.406 C 319.458 47.406,319.359 47.337,319.359 47.253 C 319.359 47.168,318.543 46.489,317.545 45.744 C 316.548 44.999,315.617 44.290,315.476 44.168 C 315.335 44.047,314.996 43.802,314.721 43.624 C 314.447 43.446,314.074 43.162,313.893 42.993 C 313.712 42.824,313.425 42.642,313.256 42.589 C 313.087 42.535,312.948 42.427,312.948 42.350 C 312.948 42.272,312.625 42.017,312.231 41.783 C 311.544 41.376,311.277 41.184,310.272 40.380 C 310.023 40.181,309.499 39.850,309.106 39.646 C 308.714 39.442,308.393 39.211,308.393 39.134 C 308.393 39.013,307.710 38.709,307.593 38.777 C 307.570 38.790,307.334 38.573,307.068 38.295 C 306.802 38.017,306.529 37.790,306.461 37.790 C 306.392 37.790,306.098 37.619,305.807 37.410 C 305.300 37.048,305.143 36.953,304.173 36.420 C 303.672 36.145,302.609 35.407,302.488 35.250 C 302.400 35.135,301.295 34.476,300.295 33.942 C 299.970 33.768,299.268 33.382,298.735 33.084 C 298.201 32.786,297.762 32.603,297.760 32.678 C 297.757 32.752,297.677 32.680,297.582 32.516 C 297.486 32.353,297.166 32.104,296.870 31.963 C 296.354 31.718,295.348 31.158,293.627 30.156 C 293.188 29.901,292.773 29.692,292.703 29.692 C 292.633 29.692,292.485 29.582,292.373 29.448 C 292.262 29.313,291.892 29.115,291.551 29.007 C 291.211 28.900,290.856 28.723,290.763 28.616 C 290.671 28.508,290.253 28.271,289.836 28.089 C 289.418 27.906,288.502 27.441,287.799 27.055 C 287.096 26.669,286.171 26.194,285.743 25.999 C 285.314 25.804,284.916 25.568,284.859 25.475 C 284.801 25.382,284.647 25.306,284.515 25.306 C 284.383 25.306,283.636 25.002,282.854 24.631 C 282.073 24.260,281.351 23.956,281.248 23.956 C 281.146 23.956,281.063 23.885,281.063 23.799 C 281.063 23.712,280.892 23.589,280.683 23.526 C 280.474 23.462,279.965 23.258,279.552 23.072 C 279.139 22.887,278.710 22.722,278.599 22.706 C 278.488 22.689,278.288 22.585,278.154 22.474 C 278.019 22.362,277.672 22.224,277.381 22.165 C 277.091 22.107,276.768 21.957,276.663 21.831 C 276.559 21.706,276.216 21.555,275.900 21.496 C 275.585 21.436,275.327 21.321,275.327 21.240 C 275.327 21.159,275.028 21.044,274.662 20.986 C 274.297 20.927,273.961 20.784,273.917 20.668 C 273.872 20.551,273.575 20.407,273.257 20.347 C 272.746 20.252,271.688 19.827,270.934 19.416 C 270.791 19.338,270.361 19.221,269.977 19.156 C 269.594 19.092,269.241 18.938,269.194 18.815 C 269.147 18.692,268.800 18.539,268.423 18.475 C 268.045 18.412,267.694 18.290,267.642 18.205 C 267.589 18.121,267.433 18.051,267.295 18.051 C 267.157 18.051,266.732 17.901,266.351 17.717 C 265.970 17.533,265.386 17.332,265.052 17.270 C 264.718 17.208,264.294 17.060,264.108 16.942 C 263.922 16.824,263.486 16.675,263.138 16.611 C 262.790 16.548,262.505 16.438,262.505 16.367 C 262.505 16.297,262.112 16.187,261.631 16.123 C 261.150 16.059,260.676 15.896,260.577 15.761 C 260.477 15.626,259.998 15.468,259.511 15.410 C 259.024 15.352,258.625 15.240,258.625 15.160 C 258.625 15.080,258.480 15.015,258.302 15.015 C 258.124 15.015,257.624 14.863,257.191 14.677 C 256.757 14.491,255.996 14.292,255.499 14.233 C 255.002 14.175,254.559 14.033,254.515 13.917 C 254.470 13.802,253.992 13.653,253.451 13.586 C 252.910 13.519,252.391 13.405,252.299 13.333 C 252.206 13.262,251.864 13.155,251.539 13.096 C 251.215 13.037,250.738 12.879,250.481 12.744 C 250.224 12.610,249.540 12.448,248.963 12.383 C 248.385 12.319,247.870 12.202,247.819 12.123 C 247.767 12.045,247.274 11.898,246.722 11.798 C 246.170 11.698,245.602 11.555,245.459 11.481 C 245.316 11.406,244.711 11.288,244.114 11.219 C 243.517 11.149,242.875 10.993,242.687 10.872 C 242.499 10.751,241.795 10.599,241.122 10.534 C 240.449 10.469,239.899 10.350,239.899 10.269 C 239.899 10.188,239.562 10.122,239.150 10.122 C 238.737 10.122,238.361 10.059,238.313 9.982 C 238.265 9.904,237.919 9.829,237.544 9.814 C 237.168 9.799,236.729 9.712,236.566 9.620 C 236.404 9.528,235.523 9.385,234.607 9.302 C 233.692 9.219,232.895 9.078,232.836 8.987 C 232.777 8.897,232.615 8.820,232.476 8.815 C 231.576 8.783,229.664 8.538,229.523 8.435 C 229.431 8.368,228.938 8.300,228.428 8.285 C 227.918 8.270,227.235 8.189,226.910 8.105 C 226.584 8.022,225.900 7.929,225.390 7.899 C 224.880 7.869,224.424 7.794,224.376 7.732 C 224.329 7.670,223.114 7.565,221.677 7.500 C 220.240 7.435,218.950 7.322,218.811 7.250 C 217.964 6.811,197.229 6.168,196.542 6.559 M211.641 40.315 C 216.682 40.705,224.072 41.586,227.415 42.195 C 230.013 42.669,234.183 43.483,235.091 43.693 C 237.160 44.172,242.237 45.422,242.598 45.541 C 242.830 45.617,243.323 45.763,243.695 45.865 C 249.509 47.456,256.171 49.774,262.337 52.352 C 264.024 53.057,264.584 53.304,267.313 54.539 C 271.011 56.213,277.324 59.573,282.750 62.757 C 286.598 65.014,295.219 70.936,298.018 73.243 C 298.203 73.396,299.608 74.543,301.139 75.791 C 313.212 85.636,324.300 97.971,332.722 110.924 C 334.930 114.320,336.229 116.372,336.229 116.463 C 336.229 116.508,336.749 117.406,337.383 118.458 C 339.317 121.665,345.002 132.790,345.002 133.369 C 345.002 133.406,345.198 133.865,345.438 134.389 C 347.525 138.951,351.086 148.828,352.427 153.775 C 352.503 154.053,352.690 154.736,352.843 155.293 C 353.311 156.997,354.138 160.152,354.280 160.776 C 354.571 162.049,355.344 165.620,355.468 166.259 C 356.086 169.445,356.689 173.044,357.140 176.255 C 357.581 179.383,357.709 180.724,358.322 188.612 C 358.546 191.492,358.553 203.019,358.332 205.625 C 358.241 206.707,358.049 209.110,357.905 210.966 C 357.656 214.206,357.479 215.868,357.153 218.051 C 357.070 218.608,356.913 219.671,356.805 220.413 C 356.499 222.510,355.948 225.708,355.468 228.174 C 354.987 230.647,353.854 235.409,353.000 238.549 C 352.760 239.431,352.502 240.380,352.426 240.658 C 351.090 245.565,347.573 255.333,345.470 259.975 C 343.341 264.674,342.654 266.127,341.319 268.747 C 339.492 272.335,338.450 274.261,337.668 275.496 C 337.286 276.099,336.488 277.427,335.896 278.448 C 322.861 300.902,302.281 320.661,277.051 334.945 C 273.011 337.232,265.594 340.750,260.481 342.805 C 259.043 343.383,257.714 343.918,257.528 343.995 C 255.100 344.997,247.507 347.524,244.285 348.403 C 243.960 348.491,243.467 348.629,243.189 348.709 C 242.468 348.915,237.553 350.146,235.850 350.547 C 234.431 350.882,231.413 351.500,229.945 351.757 C 227.572 352.173,227.011 352.268,225.474 352.511 C 214.679 354.222,201.102 354.857,191.396 354.105 C 188.060 353.847,185.450 353.606,184.142 353.438 C 183.492 353.354,182.278 353.202,181.442 353.101 C 178.887 352.789,175.704 352.300,173.682 351.909 C 168.151 350.839,166.405 350.476,164.825 350.067 C 164.500 349.983,163.437 349.712,162.463 349.464 C 156.801 348.024,147.547 345.053,144.327 343.642 C 144.142 343.561,143.383 343.257,142.640 342.968 C 141.230 342.419,138.249 341.147,136.229 340.233 C 135.580 339.939,133.189 338.773,130.915 337.642 C 127.375 335.881,125.733 334.999,121.215 332.431 C 117.084 330.084,109.449 324.835,104.431 320.894 C 102.317 319.232,98.576 316.134,97.388 315.060 C 97.181 314.873,96.334 314.112,95.505 313.370 C 91.043 309.373,83.591 301.470,79.279 296.162 C 74.560 290.354,68.765 282.000,65.759 276.677 C 65.523 276.259,65.055 275.436,64.719 274.847 C 64.383 274.258,64.108 273.749,64.108 273.715 C 64.108 273.682,63.869 273.253,63.577 272.762 C 62.603 271.122,58.949 263.801,57.872 261.331 C 56.572 258.350,54.660 253.702,54.660 253.523 C 54.660 253.451,54.514 253.070,54.336 252.676 C 53.489 250.810,51.240 243.980,49.991 239.477 C 49.759 238.642,49.495 237.693,49.405 237.368 C 49.314 237.043,49.178 236.512,49.104 236.187 C 49.029 235.863,48.758 234.724,48.503 233.657 C 48.037 231.714,47.951 231.336,47.577 229.608 C 47.383 228.712,47.078 227.156,46.718 225.221 C 44.421 212.871,43.603 196.413,44.703 184.648 C 45.320 178.047,45.564 176.032,46.232 172.037 C 46.742 168.987,47.184 166.540,47.399 165.584 C 47.483 165.213,47.627 164.568,47.720 164.150 C 48.009 162.849,48.224 161.926,48.603 160.354 C 48.804 159.519,49.029 158.570,49.104 158.245 C 49.179 157.921,49.314 157.389,49.404 157.065 C 49.495 156.740,49.734 155.867,49.934 155.124 C 51.336 149.946,54.301 141.337,56.094 137.242 C 56.216 136.963,56.520 136.242,56.771 135.639 C 58.171 132.265,61.496 125.320,63.230 122.143 C 63.850 121.008,66.440 116.601,67.790 114.382 C 82.288 90.574,104.682 70.051,130.409 56.997 C 133.428 55.465,134.498 54.952,136.904 53.885 C 140.164 52.439,144.394 50.768,149.895 48.753 C 150.358 48.583,152.218 47.977,154.028 47.406 C 155.837 46.836,157.507 46.308,157.739 46.232 C 157.971 46.157,158.503 46.002,158.920 45.888 C 159.338 45.774,159.869 45.619,160.101 45.545 C 160.505 45.416,164.214 44.501,166.512 43.964 C 167.811 43.660,170.325 43.142,173.598 42.504 C 176.141 42.008,181.435 41.264,185.491 40.831 C 186.936 40.677,192.926 40.231,195.445 40.091 C 197.616 39.969,209.249 40.131,211.641 40.315 M147.195 124.682 C 133.699 125.635,125.661 136.472,126.704 152.310 C 127.517 164.657,133.756 172.583,144.349 174.725 C 154.227 176.723,168.592 170.906,166.448 165.776 C 165.709 164.006,164.300 164.073,161.655 166.003 C 157.640 168.933,154.733 170.001,150.299 170.178 C 139.083 170.624,132.792 163.460,132.710 150.148 C 132.626 136.639,138.370 129.650,149.557 129.650 C 154.631 129.650,157.123 130.474,161.371 133.556 C 163.755 135.285,164.778 135.637,165.649 135.026 C 169.820 132.104,161.105 125.468,152.172 124.764 C 149.628 124.563,149.016 124.553,147.195 124.682 M176.295 125.221 C 175.988 125.430,175.579 125.815,175.385 126.077 L 175.032 126.554 175.032 149.895 C 175.032 173.206,175.032 173.236,175.379 173.701 C 176.615 175.357,179.015 175.357,180.251 173.701 C 180.795 172.973,180.887 127.394,180.348 126.279 C 179.685 124.910,177.566 124.357,176.295 125.221 M231.968 125.221 C 231.661 125.430,231.251 125.815,231.057 126.077 L 230.704 126.554 230.704 149.895 C 230.704 173.206,230.705 173.236,231.052 173.701 C 232.288 175.357,234.687 175.357,235.924 173.702 C 236.229 173.294,236.279 172.942,236.331 170.858 L 236.390 168.480 236.911 169.394 C 240.856 176.314,252.141 177.058,258.155 170.794 C 265.057 163.605,264.500 148.782,257.102 142.774 C 250.787 137.645,240.637 138.896,236.975 145.255 L 236.440 146.183 236.356 136.398 C 236.274 126.946,236.260 126.593,235.928 126.023 C 235.244 124.846,233.144 124.421,231.968 125.221 M193.162 139.839 C 191.159 140.485,191.235 140.037,191.179 151.495 C 191.115 164.362,191.290 166.350,192.744 169.316 C 196.466 176.907,209.140 177.149,213.990 169.721 L 214.593 168.797 214.593 170.902 C 214.594 174.064,215.138 174.863,217.292 174.863 C 218.542 174.863,219.037 174.627,219.728 173.701 C 220.074 173.239,220.076 173.130,220.076 157.432 C 220.076 139.642,220.169 140.915,218.806 140.118 C 217.511 139.362,215.574 139.815,214.852 141.044 C 214.520 141.609,214.506 141.964,214.412 151.919 C 214.305 163.364,214.335 163.061,213.111 165.398 C 210.076 171.190,200.533 172.151,197.923 166.926 C 196.990 165.058,196.995 165.125,196.891 152.817 C 196.784 140.141,196.868 141.028,195.688 140.169 C 195.213 139.823,193.787 139.637,193.162 139.839 M249.321 144.653 C 254.153 145.689,256.850 149.759,257.062 156.333 C 257.348 165.212,253.582 170.378,246.816 170.388 C 239.879 170.399,236.095 165.338,236.413 156.474 C 236.728 147.672,241.788 143.038,249.321 144.653 M114.958 220.400 C 114.315 220.680,113.763 221.363,113.531 222.165 C 113.140 223.516,113.400 268.144,113.802 268.682 C 114.742 269.941,113.478 269.839,128.709 269.890 C 143.734 269.941,143.328 269.966,144.041 268.916 C 144.551 268.163,144.519 266.468,143.982 265.866 C 143.235 265.027,143.368 265.036,130.836 265.036 L 119.106 265.036 119.103 243.568 L 119.100 222.100 118.724 221.443 C 118.056 220.279,116.333 219.802,114.958 220.400 M231.637 220.854 C 228.745 222.008,228.690 226.145,231.550 227.343 C 235.096 228.827,238.417 225.176,236.330 222.089 C 235.533 220.911,233.099 220.271,231.637 220.854 M162.716 235.024 C 153.282 235.877,147.467 243.921,148.447 254.762 C 149.296 264.153,154.919 269.932,163.636 270.370 C 173.190 270.851,179.861 264.714,180.674 254.697 C 181.683 242.260,174.137 233.992,162.716 235.024 M201.097 235.029 C 189.421 235.902,183.253 250.612,189.841 261.873 C 194.918 270.552,209.027 271.324,213.714 263.180 L 214.248 262.252 214.252 266.097 C 214.257 271.817,213.698 273.860,211.574 275.887 C 207.933 279.360,201.657 279.301,194.000 275.722 C 190.719 274.188,189.781 274.350,189.374 276.522 C 188.527 281.036,202.092 284.687,210.573 282.226 C 216.306 280.564,219.340 276.231,219.835 269.000 C 220.184 263.896,219.966 237.044,219.570 236.386 C 218.526 234.654,215.936 234.583,214.688 236.252 C 214.387 236.654,214.329 237.036,214.256 239.098 L 214.171 241.479 213.530 240.438 C 211.149 236.576,206.642 234.615,201.097 235.029 M262.421 235.020 C 258.369 235.345,254.990 237.248,252.921 240.368 L 252.299 241.306 252.214 238.958 C 252.145 237.022,252.074 236.526,251.810 236.136 C 250.727 234.539,247.915 234.769,247.023 236.529 L 246.640 237.284 246.686 252.919 C 246.731 268.412,246.735 268.558,247.079 269.020 C 248.289 270.640,250.932 270.693,251.912 269.116 L 252.299 268.494 252.387 258.119 L 252.475 247.744 252.933 246.381 C 254.372 242.103,257.861 239.730,262.714 239.730 C 266.102 239.730,268.452 240.955,269.467 243.251 C 270.339 245.223,270.322 244.966,270.423 257.137 C 270.517 268.329,270.526 268.564,270.867 269.020 C 272.163 270.756,274.939 270.679,275.808 268.883 C 276.218 268.037,276.372 249.047,275.996 245.719 C 275.134 238.084,270.432 234.377,262.421 235.020 M232.085 235.242 C 230.161 235.955,230.265 234.910,230.320 253.003 C 230.366 268.409,230.370 268.558,230.715 269.020 C 232.021 270.769,234.885 270.670,235.691 268.848 C 236.230 267.631,236.124 236.973,235.579 236.242 C 234.823 235.228,233.299 234.792,232.085 235.242 M167.987 240.153 C 172.721 241.640,175.175 246.430,174.901 253.648 C 174.610 261.326,171.356 265.337,165.162 265.654 C 158.502 265.995,154.631 261.921,154.103 254.014 C 153.417 243.749,159.644 237.533,167.987 240.153 M206.411 239.985 C 211.832 241.128,214.974 246.883,214.101 254.070 C 213.315 260.546,209.692 264.067,203.796 264.085 C 196.922 264.106,193.098 259.704,193.117 251.792 C 193.137 243.207,198.616 238.341,206.411 239.985 " stroke="none" fill="#fbbb23" fill-rule="evenodd"></path><path id="path1" d="M195.445 40.091 C 192.926 40.231,186.936 40.677,185.491 40.831 C 181.435 41.264,176.141 42.008,173.598 42.504 C 170.325 43.142,167.811 43.660,166.512 43.964 C 164.214 44.501,160.505 45.416,160.101 45.545 C 159.869 45.619,159.338 45.774,158.920 45.888 C 158.503 46.002,157.971 46.157,157.739 46.232 C 157.507 46.308,155.837 46.836,154.028 47.406 C 152.218 47.977,150.358 48.583,149.895 48.753 C 144.394 50.768,140.164 52.439,136.904 53.885 C 134.498 54.952,133.428 55.465,130.409 56.997 C 105.648 69.561,85.394 87.680,69.845 111.177 C 66.798 115.781,63.630 121.241,61.282 125.938 C 59.557 129.388,57.775 133.220,56.771 135.639 C 56.520 136.242,56.216 136.963,56.094 137.242 C 54.301 141.337,51.336 149.946,49.934 155.124 C 49.734 155.867,49.495 156.740,49.404 157.065 C 49.314 157.389,49.179 157.921,49.104 158.245 C 49.029 158.570,48.804 159.519,48.603 160.354 C 48.224 161.926,48.009 162.849,47.720 164.150 C 47.627 164.568,47.483 165.213,47.399 165.584 C 47.184 166.540,46.742 168.987,46.232 172.037 C 45.564 176.032,45.320 178.047,44.703 184.648 C 43.823 194.056,44.170 207.201,45.574 217.714 C 46.314 223.261,46.841 226.288,47.908 231.126 C 47.979 231.451,48.247 232.590,48.503 233.657 C 48.758 234.724,49.029 235.863,49.104 236.187 C 49.178 236.512,49.314 237.043,49.405 237.368 C 49.495 237.693,49.759 238.642,49.991 239.477 C 51.240 243.980,53.489 250.810,54.336 252.676 C 54.514 253.070,54.660 253.451,54.660 253.523 C 54.660 253.702,56.572 258.350,57.872 261.331 C 58.949 263.801,62.603 271.122,63.577 272.762 C 63.869 273.253,64.108 273.682,64.108 273.715 C 64.108 273.749,64.383 274.258,64.719 274.847 C 65.055 275.436,65.523 276.259,65.759 276.677 C 68.765 282.000,74.560 290.354,79.279 296.162 C 83.591 301.470,91.043 309.373,95.505 313.370 C 96.334 314.112,97.181 314.873,97.388 315.060 C 101.924 319.162,109.814 325.155,115.613 328.904 C 118.639 330.860,120.379 331.956,121.215 332.431 C 125.733 334.999,127.375 335.881,130.915 337.642 C 133.189 338.773,135.580 339.939,136.229 340.233 C 138.249 341.147,141.230 342.419,142.640 342.968 C 143.383 343.257,144.142 343.561,144.327 343.642 C 147.547 345.053,156.801 348.024,162.463 349.464 C 163.437 349.712,164.500 349.983,164.825 350.067 C 166.405 350.476,168.151 350.839,173.682 351.909 C 175.704 352.300,178.887 352.789,181.442 353.101 C 182.278 353.202,183.492 353.354,184.142 353.438 C 185.450 353.606,188.060 353.847,191.396 354.105 C 201.102 354.857,214.679 354.222,225.474 352.511 C 227.011 352.268,227.572 352.173,229.945 351.757 C 231.413 351.500,234.431 350.882,235.850 350.547 C 237.553 350.146,242.468 348.915,243.189 348.709 C 243.467 348.629,243.960 348.491,244.285 348.403 C 247.507 347.524,255.100 344.997,257.528 343.995 C 257.714 343.918,259.043 343.383,260.481 342.805 C 265.594 340.750,273.011 337.232,277.051 334.945 C 302.281 320.661,322.861 300.902,335.896 278.448 C 336.488 277.427,337.286 276.099,337.668 275.496 C 338.450 274.261,339.492 272.335,341.319 268.747 C 342.654 266.127,343.341 264.674,345.470 259.975 C 347.573 255.333,351.090 245.565,352.426 240.658 C 352.502 240.380,352.760 239.431,353.000 238.549 C 353.854 235.409,354.987 230.647,355.468 228.174 C 355.948 225.708,356.499 222.510,356.805 220.413 C 356.913 219.671,357.070 218.608,357.153 218.051 C 357.479 215.868,357.656 214.206,357.905 210.966 C 358.049 209.110,358.241 206.707,358.332 205.625 C 358.553 203.019,358.546 191.492,358.322 188.612 C 357.709 180.724,357.581 179.383,357.140 176.255 C 356.689 173.044,356.086 169.445,355.468 166.259 C 355.344 165.620,354.571 162.049,354.280 160.776 C 354.138 160.152,353.311 156.997,352.843 155.293 C 352.690 154.736,352.503 154.053,352.427 153.775 C 351.086 148.828,347.525 138.951,345.438 134.389 C 345.198 133.865,345.002 133.406,345.002 133.369 C 345.002 132.790,339.317 121.665,337.383 118.458 C 336.749 117.406,336.229 116.508,336.229 116.463 C 336.229 116.372,334.930 114.320,332.722 110.924 C 324.300 97.971,313.212 85.636,301.139 75.791 C 299.608 74.543,298.203 73.396,298.018 73.243 C 295.219 70.936,286.598 65.014,282.750 62.757 C 277.324 59.573,271.011 56.213,267.313 54.539 C 264.584 53.304,264.024 53.057,262.337 52.352 C 256.171 49.774,249.509 47.456,243.695 45.865 C 243.323 45.763,242.830 45.617,242.598 45.541 C 242.237 45.422,237.160 44.172,235.091 43.693 C 234.183 43.483,230.013 42.669,227.415 42.195 C 224.072 41.586,216.682 40.705,211.641 40.315 C 209.249 40.131,197.616 39.969,195.445 40.091 M152.172 124.764 C 161.105 125.468,169.820 132.104,165.649 135.026 C 164.778 135.637,163.755 135.285,161.371 133.556 C 157.123 130.474,154.631 129.650,149.557 129.650 C 138.370 129.650,132.626 136.639,132.710 150.148 C 132.792 163.460,139.083 170.624,150.299 170.178 C 154.733 170.001,157.640 168.933,161.655 166.003 C 164.300 164.073,165.709 164.006,166.448 165.776 C 168.191 169.948,158.779 175.028,149.304 175.028 C 135.902 175.028,127.654 166.737,126.704 152.310 C 125.661 136.472,133.699 125.635,147.195 124.682 C 149.016 124.553,149.628 124.563,152.172 124.764 M179.353 125.210 C 180.802 126.025,180.693 123.910,180.643 150.108 C 180.599 173.169,180.598 173.237,180.251 173.701 C 179.015 175.357,176.615 175.357,175.379 173.701 C 175.032 173.236,175.032 173.206,175.032 149.895 L 175.032 126.554 175.385 126.077 C 176.320 124.815,177.997 124.449,179.353 125.210 M235.001 125.137 C 236.307 125.796,236.261 125.417,236.356 136.398 L 236.440 146.183 236.975 145.255 C 240.637 138.896,250.787 137.645,257.102 142.774 C 264.500 148.782,265.057 163.605,258.155 170.794 C 252.141 177.058,240.856 176.314,236.911 169.394 L 236.390 168.480 236.331 170.858 C 236.279 172.942,236.229 173.294,235.924 173.702 C 234.687 175.357,232.288 175.357,231.052 173.701 C 230.705 173.236,230.704 173.206,230.704 149.895 L 230.704 126.554 231.057 126.077 C 231.955 124.866,233.658 124.460,235.001 125.137 M195.688 140.169 C 196.868 141.028,196.784 140.141,196.891 152.817 C 196.995 165.125,196.990 165.058,197.923 166.926 C 200.533 172.151,210.076 171.190,213.111 165.398 C 214.335 163.061,214.305 163.364,214.412 151.919 C 214.520 140.376,214.461 140.888,215.779 140.118 C 217.074 139.362,219.011 139.815,219.733 141.044 C 220.276 141.969,220.272 172.972,219.728 173.701 C 219.037 174.627,218.542 174.863,217.292 174.863 C 215.138 174.863,214.594 174.064,214.593 170.902 L 214.593 168.797 213.990 169.721 C 211.594 173.390,207.386 175.332,202.446 175.049 C 195.512 174.653,191.913 170.888,191.296 163.388 C 190.941 159.066,191.175 141.712,191.597 141.038 C 192.403 139.752,194.502 139.306,195.688 140.169 M244.201 144.608 C 239.500 145.491,236.650 149.833,236.413 156.474 C 236.095 165.338,239.879 170.399,246.816 170.388 C 253.582 170.378,257.348 165.212,257.062 156.333 C 256.784 147.704,251.818 143.176,244.201 144.608 M117.759 220.473 C 118.082 220.645,118.516 221.082,118.724 221.443 L 119.100 222.100 119.103 243.568 L 119.106 265.036 130.836 265.036 C 140.357 265.036,142.669 265.079,143.110 265.266 C 144.954 266.046,144.871 269.101,142.989 269.721 C 141.710 270.143,115.200 269.932,114.616 269.496 C 113.337 268.542,113.460 270.977,113.404 245.496 C 113.353 221.872,113.349 222.011,114.073 221.091 C 114.804 220.161,116.605 219.859,117.759 220.473 M235.100 221.085 C 238.448 222.766,237.084 227.627,233.265 227.625 C 230.944 227.624,229.446 226.251,229.446 224.125 C 229.446 221.366,232.446 219.753,235.100 221.085 M167.773 235.207 C 176.285 236.510,181.509 244.404,180.674 254.697 C 179.861 264.714,173.190 270.851,163.636 270.370 C 154.919 269.932,149.296 264.153,148.447 254.762 C 147.276 241.807,155.636 233.348,167.773 235.207 M205.742 235.258 C 209.028 235.900,211.917 237.822,213.530 240.438 L 214.171 241.479 214.256 239.098 C 214.329 237.036,214.387 236.654,214.688 236.252 C 215.936 234.583,218.526 234.654,219.570 236.386 C 219.966 237.044,220.184 263.896,219.835 269.000 C 219.340 276.231,216.306 280.564,210.573 282.226 C 202.092 284.687,188.527 281.036,189.374 276.522 C 189.781 274.350,190.719 274.188,194.000 275.722 C 201.657 279.301,207.933 279.360,211.574 275.887 C 213.698 273.860,214.257 271.817,214.252 266.097 L 214.248 262.252 213.714 263.180 C 211.456 267.104,206.394 269.321,200.980 268.759 C 193.231 267.953,188.250 262.518,187.414 253.952 C 186.221 241.735,194.687 233.100,205.742 235.258 M267.344 235.264 C 272.391 236.246,275.328 239.794,275.996 245.719 C 276.372 249.047,276.218 268.037,275.808 268.883 C 274.939 270.679,272.163 270.756,270.867 269.020 C 270.526 268.564,270.517 268.329,270.423 257.137 C 270.322 244.966,270.339 245.223,269.467 243.251 C 268.452 240.955,266.102 239.730,262.714 239.730 C 257.861 239.730,254.372 242.103,252.933 246.381 L 252.475 247.744 252.387 258.119 L 252.299 268.494 251.912 269.116 C 250.932 270.693,248.289 270.640,247.079 269.020 C 246.735 268.558,246.731 268.412,246.686 252.919 L 246.640 237.284 247.023 236.529 C 247.915 234.769,250.727 234.539,251.810 236.136 C 252.074 236.526,252.145 237.022,252.214 238.958 L 252.299 241.306 252.921 240.368 C 255.788 236.043,261.306 234.090,267.344 235.264 M234.721 235.471 C 236.036 236.241,235.929 234.797,235.980 252.405 C 236.024 267.729,236.018 268.110,235.691 268.848 C 234.885 270.670,232.021 270.769,230.715 269.020 C 230.236 268.378,230.068 237.992,230.537 236.756 C 231.135 235.179,233.160 234.557,234.721 235.471 M162.969 239.721 C 156.929 240.546,153.566 245.969,154.103 254.014 C 154.631 261.921,158.502 265.995,165.162 265.654 C 171.356 265.337,174.610 261.326,174.901 253.648 C 175.260 244.165,170.564 238.683,162.969 239.721 M200.928 239.992 C 194.130 241.451,190.806 251.037,194.467 258.624 C 198.432 266.842,210.836 265.798,213.497 257.022 C 216.683 246.515,210.373 237.966,200.928 239.992 M193.971 387.973 C 194.181 388.013,194.484 388.011,194.646 387.969 C 194.807 387.927,194.635 387.894,194.264 387.896 C 193.893 387.898,193.761 387.932,193.971 387.973 " stroke="none" fill="#b4041c" fill-rule="evenodd"></path></g></svg>