<svg id="svg" version="1.1" xmlns="http://www.w3.org/2000/svg" xmlns:xlink="http://www.w3.org/1999/xlink" width="400" height="197.15073529411762" viewBox="0, 0, 400,197.15073529411762"><g id="svgg"><path id="path0" d="M135.500 37.278 C 105.678 39.374,87.681 59.190,86.128 91.639 C 84.510 125.464,100.563 148.616,128.972 153.429 C 142.670 155.749,162.201 153.689,174.933 148.580 C 178.873 146.999,180.147 145.747,180.760 142.857 C 181.122 141.149,181.113 98.109,180.751 96.888 C 180.435 95.825,179.393 94.626,178.271 94.034 L 177.417 93.583 160.250 93.583 C 143.729 93.583,143.052 93.595,142.255 93.903 C 138.809 95.232,138.002 99.793,140.766 102.319 C 142.419 103.829,141.505 103.741,156.042 103.795 L 168.833 103.843 168.833 121.243 L 168.833 138.643 167.901 138.991 C 156.992 143.073,139.673 144.375,129.177 141.902 C 110.923 137.601,101.318 123.677,100.138 99.804 C 98.669 70.096,110.935 51.487,133.667 48.934 C 147.789 47.348,157.432 50.042,169.676 58.994 C 174.579 62.579,177.025 62.939,178.926 60.357 C 181.187 57.284,180.546 53.669,177.155 50.383 C 167.671 41.191,151.629 36.144,135.500 37.278 M300.750 37.840 C 297.322 38.543,295.089 40.940,294.886 44.134 C 294.841 44.840,294.963 48.342,295.157 51.917 C 295.498 58.212,296.056 68.685,296.916 84.917 C 297.145 89.225,297.557 96.987,297.832 102.167 C 298.108 107.346,298.410 113.196,298.503 115.167 C 298.709 119.510,298.883 120.780,299.415 121.829 C 300.646 124.260,303.602 124.736,305.532 122.814 C 306.845 121.507,306.752 122.254,307.585 106.333 C 307.813 101.979,308.225 94.179,308.500 89.000 C 309.562 69.016,310.012 60.525,310.328 54.500 C 310.508 51.063,310.705 47.313,310.766 46.167 C 311.086 40.144,306.819 36.596,300.750 37.840 M235.083 72.104 C 214.031 74.275,201.476 89.587,201.489 113.074 C 201.502 138.285,216.008 154.180,239.000 154.180 C 261.078 154.180,275.217 139.919,276.675 116.181 C 278.114 92.758,265.807 75.445,245.565 72.414 C 243.822 72.153,236.659 71.941,235.083 72.104 M241.991 83.018 C 256.365 84.399,264.177 96.608,263.161 116.103 C 262.203 134.493,253.436 143.876,237.770 143.279 C 222.714 142.705,214.929 132.446,214.919 113.167 C 214.910 94.524,222.227 84.356,236.667 82.944 C 237.994 82.814,240.183 82.845,241.991 83.018 M301.333 135.668 C 296.599 136.483,293.387 140.861,293.914 145.781 C 295.022 156.132,309.778 156.842,311.605 146.632 C 312.786 140.038,307.671 134.578,301.333 135.668 " stroke="none" fill="#fbbb23" fill-rule="evenodd"></path><path id="path1" d="M17.917 0.177 C 13.562 0.921,8.906 3.971,5.748 8.150 C 3.354 11.317,1.363 16.315,0.762 20.667 C 0.467 22.797,0.040 169.978,0.321 172.500 C 1.693 184.820,6.795 192.305,15.833 195.258 C 21.146 196.993,12.219 196.917,208.667 196.917 C 338.796 196.917,374.997 196.872,376.500 196.712 C 377.554 196.599,379.579 196.426,381.000 196.328 C 387.985 195.845,391.382 194.183,394.274 189.833 C 394.609 189.329,395.020 188.716,395.188 188.470 C 396.825 186.071,398.871 179.853,399.351 175.815 C 399.632 173.450,399.617 24.696,399.336 22.433 C 398.450 15.312,394.382 8.239,388.803 4.120 C 388.465 3.871,388.141 3.667,388.083 3.667 C 388.024 3.667,387.663 3.455,387.280 3.197 C 385.713 2.139,383.379 1.233,380.417 0.533 L 378.583 0.099 198.667 0.067 C 99.712 0.049,18.375 0.099,17.917 0.177 M144.917 37.340 C 157.996 38.307,169.496 42.960,177.155 50.383 C 180.546 53.669,181.187 57.284,178.926 60.357 C 177.025 62.939,174.579 62.579,169.676 58.994 C 157.432 50.042,147.789 47.348,133.667 48.934 C 110.935 51.487,98.669 70.096,100.138 99.804 C 101.318 123.677,110.923 137.601,129.177 141.902 C 139.673 144.375,156.992 143.073,167.901 138.991 L 168.833 138.643 168.833 121.243 L 168.833 103.843 156.042 103.795 C 141.505 103.741,142.419 103.829,140.766 102.319 C 138.002 99.793,138.809 95.232,142.255 93.903 C 143.052 93.595,143.729 93.583,160.250 93.583 L 177.417 93.583 178.271 94.034 C 179.393 94.626,180.435 95.825,180.751 96.888 C 181.113 98.109,181.122 141.149,180.760 142.857 C 180.147 145.747,178.873 146.999,174.933 148.580 C 162.201 153.689,142.670 155.749,128.972 153.429 C 100.563 148.616,84.510 125.464,86.128 91.639 C 87.681 59.190,105.678 39.374,135.500 37.278 C 137.354 37.147,142.795 37.184,144.917 37.340 M305.417 38.000 C 309.254 38.982,311.006 41.656,310.766 46.167 C 310.705 47.313,310.508 51.063,310.328 54.500 C 310.012 60.525,309.562 69.016,308.500 89.000 C 308.225 94.179,307.813 101.979,307.585 106.333 C 306.752 122.254,306.845 121.507,305.532 122.814 C 303.602 124.736,300.646 124.260,299.415 121.829 C 298.883 120.780,298.709 119.510,298.503 115.167 C 298.410 113.196,298.108 107.346,297.832 102.167 C 297.557 96.987,297.145 89.225,296.916 84.917 C 296.056 68.685,295.498 58.212,295.157 51.917 C 294.963 48.342,294.841 44.840,294.886 44.134 C 295.184 39.433,300.016 36.619,305.417 38.000 M245.565 72.414 C 265.807 75.445,278.114 92.758,276.675 116.181 C 275.217 139.919,261.078 154.180,239.000 154.180 C 216.008 154.180,201.502 138.285,201.489 113.074 C 201.476 89.587,214.031 74.275,235.083 72.104 C 236.659 71.941,243.822 72.153,245.565 72.414 M236.667 82.944 C 222.227 84.356,214.910 94.524,214.919 113.167 C 214.929 132.446,222.714 142.705,237.770 143.279 C 253.436 143.876,262.203 134.493,263.161 116.103 C 264.298 94.296,253.882 81.260,236.667 82.944 M304.500 135.671 C 309.342 136.426,312.547 141.371,311.605 146.632 C 309.778 156.842,295.022 156.132,293.914 145.781 C 293.248 139.566,298.333 134.710,304.500 135.671 " stroke="none" fill="#b4041c" fill-rule="evenodd"></path></g></svg>