<svg id="svg" version="1.1" xmlns="http://www.w3.org/2000/svg" xmlns:xlink="http://www.w3.org/1999/xlink" width="400" height="100.36740868813486" viewBox="0, 0, 400,100.36740868813486"><g id="svgg"><path id="path0" d="M278.833 4.101 C 276.087 4.429,275.204 4.560,273.757 4.852 C 260.751 7.477,252.791 17.599,253.389 30.750 C 253.875 41.440,259.978 49.269,270.535 52.743 C 273.536 53.730,275.846 54.180,283.000 55.167 C 292.772 56.516,294.807 57.091,298.105 59.430 C 304.052 63.649,305.254 73.310,300.596 79.456 C 293.778 88.453,272.176 88.053,258.028 78.668 C 256.898 77.919,255.955 77.330,255.933 77.361 C 255.885 77.429,251.482 82.490,250.145 84.013 L 249.183 85.110 250.550 86.120 C 260.673 93.598,273.383 97.172,286.333 96.181 C 302.082 94.977,310.799 88.749,313.159 77.017 C 316.486 60.472,307.242 47.926,290.000 45.585 C 276.621 43.768,274.094 43.191,270.667 41.171 C 260.562 35.217,261.895 20.599,272.961 15.992 C 280.458 12.871,292.979 14.521,302.742 19.916 C 303.655 20.421,304.442 20.830,304.492 20.827 C 304.542 20.823,305.873 18.907,307.450 16.569 L 310.316 12.318 309.366 11.710 C 301.191 6.480,287.486 3.065,278.833 4.101 M360.250 4.194 C 346.877 5.704,335.906 15.307,333.434 27.667 C 332.099 34.341,331.889 61.869,333.105 70.667 C 335.488 87.899,352.795 99.220,371.299 95.650 C 381.029 93.772,388.861 87.499,392.927 78.327 C 393.621 76.763,394.833 73.470,394.833 73.151 C 394.833 73.064,392.437 73.000,389.187 73.000 L 383.540 73.000 382.728 74.455 C 374.931 88.430,356.809 90.014,347.286 77.554 C 343.651 72.797,342.828 67.764,342.824 50.245 C 342.820 31.780,343.659 27.107,347.892 22.051 C 357.868 10.133,376.088 12.313,382.857 26.234 L 383.715 28.000 389.349 28.000 L 394.982 28.000 394.725 27.135 C 390.036 11.345,376.528 2.357,360.250 4.194 " stroke="none" fill="#e39b14" fill-rule="evenodd"></path><path id="path1" d="M276.500 0.251 C 260.035 2.270,249.831 12.881,249.378 28.454 C 249.259 32.517,250.023 38.316,250.822 39.417 C 250.888 39.508,251.079 39.958,251.246 40.417 C 253.581 46.832,259.791 52.992,266.670 55.716 C 271.370 57.578,272.522 57.812,286.917 59.837 C 295.913 61.103,299.694 64.589,299.264 71.223 C 298.852 77.582,294.756 80.830,286.074 81.683 C 275.626 82.709,264.815 79.345,256.690 72.539 C 255.434 71.488,255.637 71.448,254.316 73.000 C 253.730 73.688,253.171 74.325,253.072 74.417 C 252.974 74.508,252.449 75.108,251.905 75.750 C 251.361 76.392,250.867 76.955,250.806 77.001 C 250.744 77.048,250.457 77.385,250.167 77.751 C 249.877 78.117,249.327 78.750,248.945 79.157 C 248.563 79.565,248.059 80.138,247.825 80.431 C 247.591 80.723,246.903 81.515,246.298 82.190 C 243.173 85.671,243.238 85.543,244.213 86.284 C 244.600 86.578,245.104 86.994,245.333 87.209 C 263.076 103.856,299.986 104.938,312.105 89.167 C 318.609 80.702,319.781 67.186,314.858 57.406 C 310.053 47.859,302.225 43.050,288.583 41.265 C 277.533 39.819,274.862 39.141,271.731 36.987 C 267.034 33.756,266.626 26.461,270.900 22.148 C 276.792 16.201,292.283 17.723,303.906 25.389 C 304.817 25.990,305.614 26.449,305.677 26.410 C 305.740 26.371,306.714 24.969,307.841 23.295 C 308.968 21.620,310.653 19.125,311.587 17.750 C 316.501 10.508,316.040 11.340,315.379 10.907 C 315.130 10.744,314.788 10.482,314.620 10.325 C 313.128 8.936,306.535 5.307,302.917 3.884 C 294.774 0.682,284.502 -0.731,276.500 0.251 M359.333 0.177 C 353.992 0.824,348.701 2.678,344.848 5.252 C 342.605 6.751,341.972 7.228,340.157 8.788 C 333.939 14.132,329.939 21.380,329.005 29.000 C 327.953 37.571,327.962 62.774,329.019 71.249 C 330.808 85.594,343.011 97.528,358.366 99.950 C 371.155 101.966,384.302 97.302,391.679 88.131 C 395.498 83.384,400.000 73.159,400.000 69.235 C 400.000 69.035,398.564 69.000,390.458 69.003 L 380.917 69.006 379.689 71.392 C 379.014 72.704,378.289 73.996,378.077 74.263 C 377.865 74.531,377.322 75.217,376.871 75.788 C 370.332 84.054,357.540 83.842,350.800 75.357 C 347.452 71.141,346.665 65.458,346.886 47.083 C 347.081 30.972,347.742 28.039,352.238 23.364 C 357.609 17.776,366.561 16.867,373.535 21.200 C 375.905 22.672,378.924 26.757,379.915 29.833 C 380.078 30.337,380.267 30.825,380.336 30.917 C 380.405 31.008,380.514 31.327,380.577 31.625 L 380.693 32.167 390.347 32.167 C 395.656 32.167,400.000 32.145,400.000 32.118 C 400.000 32.091,399.813 31.098,399.585 29.910 C 396.551 14.114,385.484 2.788,370.750 0.400 C 368.799 0.084,361.309 -0.062,359.333 0.177 M67.672 40.042 C 67.678 81.041,67.691 81.799,68.409 84.583 C 70.399 92.296,76.205 95.500,88.191 95.500 L 91.167 95.500 91.167 88.917 L 91.167 82.333 88.114 82.333 C 83.890 82.333,82.841 81.949,81.903 80.061 C 81.591 79.432,81.582 78.480,81.540 39.958 L 81.497 0.500 74.582 0.500 L 67.667 0.500 67.672 40.042 M180.667 48.000 L 180.667 95.500 187.500 95.500 L 194.333 95.500 194.333 91.962 L 194.333 88.424 195.625 89.688 C 201.306 95.244,209.461 97.375,217.750 95.469 C 219.984 94.955,223.413 93.448,224.833 92.356 C 225.154 92.109,225.608 91.786,225.842 91.638 C 226.569 91.178,228.185 89.630,229.031 88.583 C 229.475 88.033,229.940 87.471,230.063 87.333 C 233.681 83.292,235.004 75.537,234.784 59.667 C 234.596 46.123,233.682 40.694,230.974 37.058 C 226.982 31.695,224.053 29.416,219.456 28.096 C 210.473 25.515,201.708 27.684,195.167 34.108 L 194.417 34.844 194.374 17.672 L 194.332 0.500 187.499 0.500 L 180.667 0.500 180.667 48.000 M288.333 4.410 C 296.123 5.411,303.548 7.988,309.366 11.710 L 310.316 12.318 307.450 16.569 C 305.873 18.907,304.542 20.823,304.492 20.827 C 304.442 20.830,303.655 20.421,302.742 19.916 C 292.979 14.521,280.458 12.871,272.961 15.992 C 261.895 20.599,260.562 35.217,270.667 41.171 C 274.094 43.191,276.621 43.768,290.000 45.585 C 307.242 47.926,316.486 60.472,313.159 77.017 C 310.799 88.749,302.082 94.977,286.333 96.181 C 273.383 97.172,260.673 93.598,250.550 86.120 L 249.183 85.110 250.145 84.013 C 251.482 82.490,255.885 77.429,255.933 77.361 C 255.955 77.330,256.898 77.919,258.028 78.668 C 272.176 88.053,293.778 88.453,300.596 79.456 C 305.254 73.310,304.052 63.649,298.105 59.430 C 294.807 57.091,292.772 56.516,283.000 55.167 C 275.846 54.180,273.536 53.730,270.535 52.743 C 259.978 49.269,253.875 41.440,253.389 30.750 C 252.791 17.599,260.751 7.477,273.757 4.852 C 275.204 4.560,276.087 4.429,278.833 4.101 C 280.080 3.951,286.355 4.155,288.333 4.410 M368.483 4.260 C 381.255 5.746,390.860 14.119,394.725 27.135 L 394.982 28.000 389.349 28.000 L 383.715 28.000 382.857 26.234 C 374.360 8.758,348.433 11.212,343.991 29.913 C 342.432 36.480,342.337 62.049,343.844 69.532 C 345.645 78.476,352.871 84.916,362.147 85.845 C 370.692 86.701,378.221 82.534,382.728 74.455 L 383.540 73.000 389.187 73.000 C 392.437 73.000,394.833 73.064,394.833 73.151 C 394.833 74.559,391.953 80.683,389.769 83.917 C 378.265 100.949,349.386 100.198,337.569 82.560 C 333.282 76.161,332.547 72.002,332.385 53.250 C 332.181 29.540,333.012 24.139,337.928 17.237 C 344.774 7.623,356.088 2.818,368.483 4.260 M25.833 27.251 C 8.027 29.685,-2.063 45.442,0.247 67.206 C 1.453 78.571,5.550 85.954,13.500 91.085 C 14.188 91.529,15.012 92.063,15.333 92.271 C 20.945 95.919,30.734 97.131,38.564 95.148 C 41.601 94.378,47.723 91.310,49.167 89.833 C 49.212 89.786,49.680 89.428,50.205 89.038 C 51.305 88.220,54.197 85.494,54.671 84.828 L 54.991 84.378 53.049 82.647 C 51.980 81.695,50.953 80.767,50.765 80.583 C 50.577 80.400,50.073 79.950,49.644 79.583 C 49.215 79.217,47.964 78.114,46.863 77.132 L 44.862 75.347 44.400 75.965 C 38.281 84.142,24.075 84.718,17.947 77.038 C 12.271 69.925,12.272 53.299,17.947 46.167 C 24.108 38.425,38.658 39.043,44.423 47.292 C 44.837 47.883,44.845 47.877,49.583 43.645 C 52.058 41.434,54.290 39.470,54.542 39.281 C 55.155 38.821,55.183 38.887,53.662 37.245 C 46.340 29.342,36.469 25.797,25.833 27.251 M105.716 52.208 C 105.769 73.905,105.805 76.725,106.046 77.875 C 107.330 84.011,109.608 87.522,114.901 91.527 C 124.018 98.425,136.584 97.625,144.542 89.640 L 146.000 88.177 146.000 91.838 L 146.000 95.500 152.833 95.500 L 159.667 95.500 159.667 61.667 L 159.667 27.833 152.833 27.833 L 146.000 27.833 146.000 48.463 C 146.000 72.537,146.001 72.521,144.329 75.628 C 141.967 80.018,138.481 82.113,133.250 82.286 C 128.208 82.453,124.770 80.890,122.032 77.188 C 119.348 73.558,119.444 74.567,119.377 49.208 L 119.320 27.833 112.489 27.833 L 105.657 27.833 105.716 52.208 M211.084 40.989 C 216.735 42.083,218.900 44.517,220.482 51.559 L 221.000 53.862 220.998 61.306 C 220.995 73.307,219.861 77.131,215.287 80.557 C 213.013 82.262,206.444 82.925,203.072 81.790 C 196.517 79.586,193.810 72.112,194.505 58.139 C 195.182 44.527,200.570 38.954,211.084 40.989 " stroke="none" fill="#cc0c24" fill-rule="evenodd"></path></g></svg>