<svg id="svg" version="1.1" xmlns="http://www.w3.org/2000/svg" xmlns:xlink="http://www.w3.org/1999/xlink" width="400" height="400.6837606837607" viewBox="0, 0, 400,400.6837606837607"><g id="svgg"><path id="path0" d="M197.308 6.104 C 197.096 6.144,196.923 6.230,196.923 6.294 C 196.923 6.358,195.327 6.416,193.376 6.423 C 189.225 6.439,184.432 6.654,184.188 6.836 C 184.094 6.906,182.827 7.017,181.371 7.082 C 179.745 7.155,178.527 7.290,178.209 7.434 C 177.925 7.563,176.749 7.720,175.597 7.785 C 174.444 7.849,173.459 7.970,173.407 8.053 C 173.355 8.137,172.933 8.205,172.469 8.205 C 172.004 8.205,171.624 8.271,171.624 8.350 C 171.624 8.430,171.152 8.510,170.576 8.527 C 170.000 8.545,169.404 8.624,169.251 8.704 C 169.099 8.784,168.334 8.906,167.551 8.974 C 166.661 9.051,166.098 9.179,166.046 9.314 C 165.992 9.453,165.414 9.573,164.434 9.650 C 163.594 9.715,162.906 9.824,162.906 9.891 C 162.906 9.957,162.282 10.096,161.519 10.198 C 160.757 10.300,160.084 10.460,160.024 10.554 C 159.964 10.647,159.376 10.780,158.718 10.849 C 158.060 10.918,157.444 11.033,157.350 11.106 C 157.155 11.256,155.429 11.682,155.043 11.675 C 154.902 11.673,154.709 11.727,154.615 11.797 C 154.521 11.866,154.069 11.977,153.611 12.043 C 152.599 12.190,152.284 12.302,152.391 12.475 C 152.435 12.547,152.006 12.659,151.436 12.723 C 150.866 12.788,150.232 12.905,150.029 12.984 C 149.825 13.062,149.312 13.219,148.889 13.332 C 148.466 13.445,148.001 13.598,147.856 13.671 C 147.712 13.744,147.187 13.860,146.690 13.928 C 146.194 13.997,145.750 14.152,145.703 14.273 C 145.657 14.394,145.202 14.545,144.692 14.609 C 144.183 14.673,143.727 14.787,143.680 14.864 C 143.633 14.941,143.248 15.055,142.825 15.119 C 142.402 15.182,141.956 15.334,141.834 15.455 C 141.712 15.577,141.252 15.731,140.810 15.797 C 140.369 15.863,139.970 15.979,139.923 16.055 C 139.876 16.130,139.471 16.292,139.021 16.413 C 138.572 16.535,138.128 16.692,138.034 16.763 C 137.940 16.834,137.578 16.946,137.228 17.011 C 136.879 17.076,136.509 17.231,136.407 17.355 C 136.304 17.479,135.903 17.634,135.515 17.699 C 135.127 17.765,134.552 17.963,134.237 18.140 C 133.923 18.317,133.513 18.462,133.328 18.462 C 133.143 18.462,132.991 18.530,132.991 18.613 C 132.991 18.696,132.652 18.815,132.237 18.878 C 131.823 18.940,131.444 19.093,131.396 19.217 C 131.348 19.342,131.015 19.499,130.655 19.566 C 130.295 19.634,129.923 19.745,129.829 19.814 C 129.735 19.884,129.329 20.034,128.927 20.149 C 128.524 20.264,128.234 20.422,128.282 20.499 C 128.330 20.577,128.086 20.686,127.739 20.742 C 127.392 20.799,126.798 20.996,126.418 21.181 C 126.038 21.366,125.419 21.641,125.043 21.792 C 124.667 21.944,124.244 22.141,124.103 22.231 C 123.962 22.321,123.654 22.474,123.419 22.573 C 122.284 23.048,122.051 23.170,122.051 23.290 C 122.051 23.361,121.909 23.419,121.736 23.419 C 121.433 23.419,120.538 23.777,120.000 24.114 C 119.859 24.202,119.551 24.355,119.316 24.454 C 118.900 24.630,112.904 27.556,112.222 27.917 C 112.034 28.016,111.419 28.341,110.855 28.639 C 110.291 28.937,109.521 29.358,109.145 29.576 C 108.769 29.793,108.250 30.079,107.991 30.211 C 107.733 30.344,107.521 30.524,107.521 30.611 C 107.521 30.698,107.406 30.769,107.265 30.769 C 107.124 30.769,106.866 30.912,106.691 31.086 C 106.517 31.261,106.165 31.456,105.908 31.520 C 105.652 31.585,105.144 31.835,104.779 32.076 C 104.414 32.318,103.880 32.642,103.592 32.796 C 103.304 32.951,102.571 33.343,101.962 33.667 C 101.353 33.992,100.855 34.319,100.855 34.394 C 100.855 34.469,100.748 34.530,100.618 34.530 C 100.488 34.530,99.738 34.991,98.951 35.554 C 98.165 36.117,97.425 36.579,97.308 36.580 C 97.190 36.581,97.094 36.649,97.094 36.732 C 97.094 36.815,96.959 36.929,96.795 36.984 C 96.357 37.131,95.534 37.633,94.771 38.217 C 94.404 38.499,93.795 38.926,93.419 39.165 C 91.653 40.291,90.769 40.924,90.769 41.063 C 90.769 41.146,90.538 41.295,90.256 41.393 C 89.974 41.491,89.744 41.641,89.744 41.726 C 89.744 41.811,89.656 41.880,89.548 41.880 C 89.441 41.880,88.948 42.226,88.453 42.650 C 87.957 43.073,87.492 43.419,87.419 43.419 C 87.258 43.419,85.237 44.980,85.157 45.167 C 85.125 45.240,84.991 45.299,84.858 45.299 C 84.724 45.299,84.615 45.376,84.615 45.470 C 84.615 45.564,84.528 45.641,84.421 45.641 C 84.315 45.641,84.055 45.814,83.845 46.026 C 83.358 46.515,82.559 47.179,82.457 47.179 C 82.376 47.179,82.066 47.418,81.563 47.869 C 81.402 48.014,80.965 48.360,80.592 48.639 C 79.609 49.374,79.617 49.368,79.087 49.838 C 78.820 50.075,78.416 50.390,78.190 50.539 C 77.963 50.687,77.778 50.915,77.778 51.045 C 77.778 51.176,77.687 51.282,77.575 51.282 C 77.305 51.282,75.687 52.627,73.670 54.530 C 73.122 55.047,72.533 55.559,72.362 55.668 C 72.191 55.777,72.071 55.950,72.094 56.052 C 72.118 56.155,72.069 56.220,71.985 56.197 C 71.664 56.106,63.122 64.421,59.829 68.029 C 59.124 68.802,58.412 69.559,58.248 69.712 C 58.083 69.865,57.949 70.089,57.949 70.209 C 57.949 70.329,57.831 70.427,57.687 70.427 C 57.543 70.427,57.375 70.557,57.314 70.716 C 57.254 70.875,56.948 71.229,56.636 71.503 C 56.324 71.777,56.068 72.060,56.068 72.131 C 56.068 72.202,55.646 72.714,55.129 73.267 C 54.613 73.821,54.190 74.325,54.189 74.387 C 54.189 74.449,53.919 74.778,53.590 75.117 C 53.261 75.455,52.991 75.847,52.991 75.986 C 52.991 76.125,52.876 76.239,52.735 76.239 C 52.594 76.239,52.477 76.297,52.476 76.368 C 52.474 76.438,52.168 76.842,51.795 77.265 C 51.422 77.688,51.115 78.088,51.114 78.155 C 51.112 78.221,50.938 78.455,50.726 78.675 C 50.299 79.120,49.928 79.582,48.288 81.709 C 47.672 82.509,47.055 83.298,46.917 83.463 C 46.780 83.629,46.667 83.841,46.667 83.934 C 46.667 84.027,46.595 84.103,46.507 84.103 C 46.420 84.103,46.300 84.252,46.242 84.436 C 46.184 84.619,45.915 85.006,45.645 85.295 C 45.197 85.775,43.258 88.570,43.093 88.974 C 43.054 89.068,42.881 89.246,42.708 89.369 C 42.535 89.492,42.393 89.691,42.393 89.812 C 42.393 89.933,42.239 90.172,42.051 90.342 C 41.863 90.512,41.709 90.737,41.709 90.842 C 41.709 90.946,41.421 91.390,41.068 91.829 C 40.233 92.867,39.316 94.335,39.316 94.635 C 39.316 94.765,39.252 94.872,39.174 94.872 C 39.096 94.872,38.925 95.083,38.793 95.342 C 38.498 95.922,37.738 96.988,37.564 97.066 C 37.494 97.097,37.436 97.192,37.436 97.276 C 37.436 97.360,37.167 97.850,36.838 98.365 C 36.509 98.879,36.239 99.409,36.239 99.544 C 36.239 99.678,36.119 99.887,35.973 100.008 C 35.827 100.130,35.599 100.466,35.467 100.756 C 35.085 101.593,34.246 103.071,33.973 103.386 C 33.835 103.545,33.504 104.060,33.237 104.530 C 32.970 105.000,32.700 105.423,32.638 105.470 C 32.576 105.517,32.465 105.748,32.393 105.983 C 32.320 106.218,32.117 106.594,31.942 106.818 C 31.767 107.042,31.624 107.369,31.624 107.544 C 31.624 107.720,31.564 107.863,31.490 107.863 C 31.417 107.863,31.266 108.075,31.155 108.333 C 31.044 108.592,30.881 108.919,30.794 109.060 C 30.706 109.201,30.547 109.509,30.439 109.744 C 30.331 109.979,30.019 110.556,29.747 111.026 C 29.474 111.496,29.246 111.984,29.241 112.110 C 29.235 112.236,29.077 112.535,28.889 112.774 C 28.701 113.013,28.547 113.346,28.547 113.513 C 28.547 113.681,28.489 113.843,28.419 113.875 C 28.263 113.944,27.594 115.306,27.425 115.897 C 27.358 116.132,27.160 116.508,26.985 116.732 C 26.810 116.957,26.667 117.236,26.667 117.354 C 26.667 117.472,26.552 117.788,26.411 118.057 C 26.271 118.327,26.155 118.682,26.155 118.846 C 26.154 119.011,26.066 119.126,25.960 119.103 C 25.853 119.079,25.703 119.280,25.627 119.550 C 25.551 119.819,25.254 120.500,24.966 121.061 C 24.679 121.623,24.396 122.380,24.338 122.744 C 24.280 123.107,24.149 123.389,24.048 123.369 C 23.947 123.349,23.791 123.660,23.702 124.060 C 23.614 124.459,23.475 124.786,23.395 124.786 C 23.314 124.786,23.248 124.899,23.248 125.038 C 23.248 125.176,23.056 125.709,22.821 126.223 C 22.585 126.737,22.393 127.263,22.393 127.391 C 22.393 127.519,22.309 127.708,22.206 127.811 C 21.983 128.034,21.198 130.221,21.197 130.623 C 21.197 130.777,21.087 130.946,20.952 130.997 C 20.818 131.049,20.655 131.442,20.591 131.870 C 20.527 132.299,20.421 132.650,20.357 132.650 C 20.197 132.650,19.829 133.699,19.829 134.157 C 19.829 134.362,19.759 134.530,19.673 134.530 C 19.587 134.530,19.464 134.857,19.398 135.256 C 19.333 135.656,19.183 136.098,19.066 136.239 C 18.948 136.380,18.773 136.803,18.676 137.179 C 18.509 137.823,18.066 139.150,17.763 139.915 C 17.688 140.103,17.574 140.525,17.509 140.852 C 17.444 141.180,17.290 141.603,17.166 141.792 C 17.042 141.982,16.888 142.483,16.823 142.906 C 16.758 143.329,16.646 143.752,16.574 143.846 C 16.502 143.940,16.389 144.459,16.322 144.998 C 16.255 145.538,16.140 145.942,16.067 145.896 C 15.891 145.788,15.780 146.100,15.633 147.115 C 15.567 147.573,15.443 148.036,15.358 148.144 C 15.273 148.251,15.186 148.578,15.166 148.870 C 15.145 149.162,15.079 149.401,15.019 149.401 C 14.960 149.402,14.870 149.613,14.820 149.872 C 14.770 150.130,14.648 150.650,14.548 151.026 C 14.449 151.402,14.365 151.990,14.363 152.332 C 14.361 152.707,14.263 152.992,14.118 153.047 C 13.957 153.109,13.837 153.567,13.756 154.433 C 13.690 155.144,13.575 155.726,13.502 155.726 C 13.429 155.726,13.327 156.015,13.275 156.368 C 13.109 157.508,12.951 158.201,12.820 158.376 C 12.749 158.470,12.637 159.067,12.571 159.702 C 12.505 160.337,12.344 161.072,12.213 161.335 C 12.082 161.598,11.924 162.386,11.861 163.086 C 11.799 163.786,11.688 164.437,11.614 164.531 C 11.540 164.626,11.423 165.472,11.355 166.412 C 11.275 167.502,11.147 168.181,11.003 168.291 C 10.851 168.405,10.738 169.102,10.661 170.385 C 10.598 171.442,10.491 172.308,10.423 172.308 C 10.290 172.308,10.138 173.349,9.975 175.385 C 9.918 176.090,9.808 176.747,9.730 176.846 C 9.652 176.944,9.535 178.345,9.469 179.960 C 9.404 181.574,9.294 182.860,9.226 182.817 C 8.985 182.669,8.887 183.849,8.790 188.099 C 8.736 190.461,8.618 192.547,8.529 192.735 C 8.128 193.579,8.677 214.507,9.134 215.812 C 9.273 216.206,9.423 217.617,9.490 219.145 C 9.554 220.603,9.666 221.872,9.739 221.966 C 9.812 222.060,9.918 222.714,9.975 223.419 C 10.146 225.547,10.292 226.496,10.449 226.496 C 10.531 226.496,10.606 226.976,10.615 227.564 C 10.641 229.191,10.837 230.517,11.046 230.478 C 11.165 230.456,11.275 231.094,11.349 232.243 C 11.413 233.232,11.532 234.171,11.613 234.328 C 11.694 234.486,11.839 235.229,11.934 235.978 C 12.029 236.727,12.191 237.368,12.293 237.402 C 12.395 237.437,12.482 237.785,12.486 238.177 C 12.493 238.864,12.587 239.387,12.998 241.026 C 13.104 241.449,13.231 242.083,13.280 242.436 C 13.329 242.788,13.430 243.077,13.505 243.077 C 13.579 243.077,13.694 243.612,13.760 244.266 C 13.826 244.921,13.983 245.542,14.110 245.647 C 14.237 245.753,14.393 246.372,14.458 247.026 C 14.522 247.679,14.642 248.254,14.723 248.304 C 14.805 248.355,14.872 248.579,14.872 248.803 C 14.872 249.027,14.950 249.259,15.046 249.318 C 15.141 249.377,15.176 249.496,15.122 249.583 C 15.069 249.669,15.138 249.991,15.276 250.297 C 15.414 250.604,15.575 251.214,15.635 251.653 C 15.695 252.092,15.846 252.536,15.972 252.641 C 16.098 252.745,16.256 253.271,16.322 253.809 C 16.389 254.346,16.504 254.863,16.578 254.957 C 16.653 255.051,16.768 255.457,16.834 255.858 C 16.900 256.260,17.059 256.693,17.188 256.821 C 17.316 256.950,17.471 257.429,17.532 257.886 C 17.593 258.344,17.698 258.795,17.765 258.889 C 17.832 258.983,17.992 259.406,18.120 259.829 C 18.248 260.252,18.407 260.675,18.473 260.769 C 18.539 260.863,18.647 261.263,18.712 261.657 C 18.777 262.051,18.931 262.457,19.055 262.560 C 19.178 262.662,19.331 263.090,19.394 263.510 C 19.457 263.930,19.580 264.274,19.669 264.274 C 19.757 264.274,19.829 264.390,19.829 264.533 C 19.829 264.924,20.238 266.154,20.368 266.154 C 20.431 266.154,20.534 266.457,20.597 266.828 C 20.659 267.198,20.816 267.589,20.945 267.696 C 21.074 267.804,21.231 268.231,21.293 268.646 C 21.355 269.062,21.459 269.402,21.522 269.402 C 21.586 269.402,21.731 269.748,21.844 270.171 C 21.957 270.594,22.120 270.940,22.207 270.940 C 22.293 270.940,22.415 271.248,22.479 271.624 C 22.542 272.000,22.664 272.308,22.750 272.308 C 22.836 272.308,22.906 272.427,22.906 272.572 C 22.906 272.718,23.054 273.144,23.236 273.520 C 23.417 273.895,23.617 274.435,23.679 274.720 C 23.742 275.004,23.901 275.278,24.033 275.329 C 24.165 275.380,24.274 275.586,24.274 275.788 C 24.274 275.989,24.541 276.692,24.867 277.350 C 25.193 278.009,25.505 278.753,25.561 279.005 C 25.617 279.257,25.771 279.554,25.904 279.663 C 26.036 279.773,26.194 280.125,26.254 280.445 C 26.314 280.764,26.423 281.026,26.496 281.026 C 26.569 281.026,26.680 281.299,26.743 281.633 C 26.805 281.967,26.966 282.282,27.099 282.333 C 27.232 282.384,27.390 282.688,27.450 283.008 C 27.510 283.328,27.613 283.590,27.679 283.590 C 27.745 283.590,27.905 283.859,28.034 284.188 C 28.163 284.517,28.328 284.786,28.400 284.786 C 28.472 284.786,28.582 285.056,28.644 285.385 C 28.705 285.714,28.854 285.983,28.974 285.983 C 29.094 285.983,29.243 286.252,29.305 286.581 C 29.367 286.910,29.491 287.179,29.580 287.179 C 29.670 287.179,29.744 287.302,29.744 287.452 C 29.744 287.602,29.892 287.934,30.074 288.189 C 30.256 288.444,30.458 288.866,30.523 289.127 C 30.589 289.387,30.748 289.641,30.877 289.690 C 31.006 289.740,31.111 289.854,31.111 289.943 C 31.111 290.237,31.987 291.966,32.136 291.966 C 32.215 291.966,32.331 292.197,32.393 292.479 C 32.455 292.761,32.562 292.991,32.631 292.991 C 32.700 292.991,32.862 293.261,32.991 293.590 C 33.121 293.919,33.283 294.188,33.352 294.188 C 33.421 294.188,33.526 294.412,33.587 294.687 C 33.647 294.961,33.797 295.224,33.920 295.271 C 34.043 295.318,34.196 295.565,34.260 295.820 C 34.324 296.075,34.642 296.698,34.966 297.205 C 35.290 297.712,35.556 298.162,35.556 298.206 C 35.556 298.250,35.979 298.897,36.496 299.643 C 37.013 300.390,37.436 301.112,37.436 301.248 C 37.436 301.385,37.559 301.599,37.710 301.724 C 37.861 301.849,38.053 302.109,38.137 302.301 C 38.332 302.747,38.520 303.043,39.615 304.641 C 40.109 305.361,40.513 305.990,40.513 306.040 C 40.513 306.120,40.928 306.738,42.311 308.718 C 42.541 309.047,42.788 309.397,42.860 309.497 C 43.124 309.858,43.424 310.348,43.536 310.598 C 43.599 310.739,43.698 310.893,43.756 310.940 C 44.034 311.164,45.470 313.159,45.470 313.320 C 45.470 313.422,45.530 313.504,45.604 313.504 C 45.678 313.504,45.864 313.716,46.018 313.974 C 46.172 314.233,46.439 314.598,46.611 314.786 C 46.783 314.974,47.115 315.416,47.350 315.768 C 47.585 316.120,47.835 316.408,47.906 316.409 C 47.976 316.410,48.034 316.528,48.034 316.672 C 48.034 316.816,48.150 316.978,48.291 317.032 C 48.432 317.086,48.547 317.205,48.547 317.295 C 48.547 317.386,48.643 317.562,48.761 317.685 C 48.878 317.809,49.282 318.317,49.658 318.815 C 50.034 319.312,50.510 319.896,50.715 320.112 C 50.920 320.328,51.304 320.795,51.569 321.150 C 51.833 321.505,52.091 321.833,52.142 321.880 C 52.192 321.927,52.539 322.350,52.912 322.821 C 53.285 323.291,53.678 323.752,53.787 323.846 C 53.895 323.940,54.393 324.517,54.892 325.128 C 55.391 325.739,55.879 326.323,55.977 326.425 C 56.074 326.528,56.654 327.176,57.265 327.865 C 59.454 330.335,60.745 331.708,60.801 331.624 C 60.832 331.577,61.000 331.769,61.174 332.051 C 61.601 332.745,68.670 339.755,68.887 339.701 C 68.982 339.677,69.060 339.745,69.060 339.850 C 69.060 339.956,69.653 340.591,70.378 341.260 C 71.103 341.930,71.876 342.652,72.095 342.863 C 72.315 343.075,72.526 343.248,72.565 343.248 C 72.604 343.248,72.928 343.536,73.284 343.889 C 73.640 344.242,74.306 344.838,74.764 345.214 C 75.579 345.884,76.038 346.281,76.950 347.109 C 77.201 347.336,77.445 347.521,77.493 347.521 C 77.541 347.521,77.800 347.733,78.068 347.991 C 78.337 348.250,78.858 348.692,79.228 348.974 C 79.597 349.256,80.016 349.622,80.158 349.786 C 80.301 349.951,80.478 350.085,80.551 350.085 C 80.624 350.085,80.832 350.220,81.013 350.385 C 81.579 350.898,81.930 351.180,82.643 351.694 C 83.023 351.968,83.359 352.257,83.390 352.335 C 83.422 352.414,83.514 352.479,83.596 352.479 C 83.678 352.479,83.930 352.652,84.156 352.863 C 84.383 353.075,84.969 353.517,85.460 353.846 C 85.951 354.175,86.520 354.607,86.723 354.807 C 86.927 355.006,87.632 355.520,88.291 355.949 C 88.949 356.378,89.711 356.926,89.984 357.168 C 90.257 357.409,90.584 357.607,90.710 357.607 C 90.837 357.607,90.940 357.716,90.940 357.850 C 90.940 357.983,91.171 358.143,91.453 358.205 C 91.735 358.267,91.966 358.389,91.966 358.475 C 91.966 358.562,92.077 358.632,92.213 358.632 C 92.348 358.632,92.563 358.781,92.690 358.962 C 92.817 359.144,93.127 359.344,93.378 359.407 C 93.629 359.470,93.880 359.667,93.937 359.846 C 93.994 360.025,94.150 360.171,94.285 360.171 C 94.420 360.171,94.530 360.242,94.530 360.328 C 94.530 360.415,94.754 360.535,95.028 360.595 C 95.303 360.655,95.566 360.807,95.614 360.932 C 95.662 361.057,95.919 361.269,96.184 361.403 C 96.909 361.769,97.511 362.124,97.607 362.242 C 97.654 362.300,97.885 362.407,98.120 362.480 C 98.355 362.553,98.648 362.756,98.770 362.931 C 98.893 363.105,99.108 363.248,99.248 363.248 C 99.387 363.248,99.671 363.409,99.879 363.605 C 100.412 364.109,101.963 365.128,102.197 365.128 C 102.305 365.128,102.393 365.200,102.393 365.288 C 102.393 365.375,102.566 365.501,102.778 365.568 C 102.989 365.634,103.346 365.831,103.570 366.006 C 103.794 366.182,104.121 366.325,104.297 366.325 C 104.472 366.325,104.615 366.389,104.615 366.467 C 104.615 366.545,104.827 366.718,105.085 366.851 C 105.344 366.985,105.657 367.190,105.781 367.308 C 105.906 367.425,106.199 367.521,106.433 367.521 C 106.666 367.521,106.813 367.594,106.758 367.683 C 106.703 367.772,107.160 368.094,107.774 368.400 C 108.387 368.705,108.889 369.008,108.889 369.074 C 108.889 369.140,109.100 369.247,109.358 369.311 C 109.616 369.376,109.913 369.500,110.017 369.587 C 110.384 369.891,111.816 370.598,112.066 370.598 C 112.205 370.598,112.363 370.714,112.417 370.855 C 112.471 370.996,112.605 371.111,112.715 371.111 C 112.825 371.111,113.517 371.419,114.252 371.795 C 114.988 372.171,115.689 372.479,115.811 372.479 C 115.932 372.479,116.076 372.594,116.130 372.735 C 116.184 372.876,116.318 372.991,116.428 372.991 C 116.538 372.991,117.291 373.309,118.100 373.696 C 118.910 374.084,120.115 374.661,120.779 374.978 C 121.442 375.296,122.115 375.556,122.275 375.556 C 122.434 375.556,122.564 375.634,122.564 375.731 C 122.564 375.931,123.270 376.231,123.854 376.279 C 124.071 376.297,124.211 376.372,124.166 376.447 C 124.120 376.521,124.168 376.581,124.272 376.581 C 124.376 376.581,124.768 376.730,125.144 376.911 C 125.519 377.093,126.049 377.290,126.320 377.349 C 126.592 377.409,126.904 377.566,127.014 377.699 C 127.124 377.831,127.475 377.989,127.795 378.049 C 128.115 378.109,128.376 378.226,128.376 378.310 C 128.376 378.393,128.528 378.462,128.713 378.462 C 128.898 378.462,129.315 378.611,129.640 378.793 C 129.965 378.976,130.506 379.177,130.842 379.240 C 131.178 379.303,131.453 379.420,131.453 379.499 C 131.453 379.579,131.780 379.738,132.179 379.852 C 132.579 379.966,132.983 380.116,133.077 380.186 C 133.171 380.255,133.534 380.365,133.883 380.430 C 134.232 380.495,134.604 380.652,134.709 380.779 C 134.814 380.905,135.240 381.060,135.655 381.122 C 136.070 381.184,136.410 381.304,136.410 381.387 C 136.410 381.470,136.641 381.538,136.923 381.538 C 137.205 381.538,137.436 381.615,137.436 381.709 C 137.436 381.803,137.624 381.880,137.853 381.880 C 138.083 381.880,138.313 381.949,138.364 382.032 C 138.416 382.115,138.747 382.236,139.101 382.301 C 139.454 382.366,139.899 382.518,140.088 382.640 C 140.277 382.762,140.700 382.914,141.028 382.979 C 141.356 383.044,141.778 383.166,141.966 383.251 C 142.689 383.576,144.982 384.274,145.345 384.279 C 145.555 384.282,145.868 384.392,146.041 384.523 C 146.215 384.654,146.676 384.814,147.067 384.879 C 147.458 384.943,147.855 385.056,147.949 385.128 C 148.043 385.201,148.543 385.316,149.060 385.384 C 149.577 385.452,150.115 385.606,150.256 385.726 C 150.397 385.847,150.859 386.001,151.282 386.069 C 151.705 386.137,152.128 386.251,152.222 386.323 C 152.316 386.394,152.643 386.501,152.949 386.560 C 153.254 386.619,153.754 386.715,154.060 386.774 C 154.365 386.832,154.692 386.939,154.786 387.011 C 154.880 387.083,155.457 387.197,156.068 387.264 C 156.679 387.332,157.295 387.485,157.436 387.605 C 157.577 387.725,158.192 387.905,158.803 388.005 C 159.878 388.182,160.958 388.394,162.564 388.745 C 162.987 388.838,163.949 388.999,164.701 389.104 C 165.453 389.208,166.114 389.360,166.169 389.441 C 166.224 389.522,166.993 389.669,167.878 389.768 C 168.763 389.867,169.612 390.012,169.765 390.091 C 169.918 390.169,170.802 390.288,171.731 390.356 C 172.659 390.423,173.573 390.577,173.761 390.697 C 173.949 390.818,175.103 391.001,176.325 391.104 C 177.547 391.207,179.162 391.366,179.915 391.456 C 183.315 391.865,183.770 391.901,193.077 392.497 C 200.451 392.969,215.813 392.452,223.761 391.463 C 224.466 391.376,225.927 391.223,227.009 391.125 C 229.471 390.900,230.118 390.789,230.008 390.611 C 229.960 390.534,230.779 390.415,231.827 390.347 C 232.874 390.279,233.854 390.162,234.003 390.085 C 234.152 390.009,234.955 389.873,235.788 389.782 C 236.621 389.691,237.352 389.546,237.412 389.460 C 237.472 389.374,237.827 389.280,238.201 389.251 C 238.877 389.198,239.894 389.024,241.368 388.710 C 241.791 388.619,242.444 388.497,242.821 388.438 C 243.197 388.378,243.581 388.272,243.675 388.201 C 243.769 388.130,244.323 388.018,244.907 387.952 C 245.490 387.886,246.051 387.730,246.154 387.607 C 246.256 387.483,246.818 387.328,247.401 387.262 C 247.984 387.196,248.538 387.082,248.632 387.010 C 248.726 386.937,249.073 386.836,249.402 386.785 C 250.328 386.640,250.993 386.484,251.368 386.324 C 251.556 386.243,252.068 386.130,252.506 386.072 C 252.944 386.014,253.342 385.865,253.389 385.742 C 253.440 385.610,253.918 385.467,254.556 385.395 C 255.151 385.328,255.715 385.212,255.810 385.137 C 255.905 385.063,256.387 384.907,256.880 384.792 C 257.374 384.676,257.778 384.523,257.778 384.451 C 257.778 384.380,258.171 384.275,258.651 384.218 C 259.131 384.161,259.611 384.047,259.719 383.964 C 259.827 383.881,260.299 383.713,260.769 383.590 C 261.239 383.467,261.701 383.311,261.795 383.244 C 261.889 383.176,262.274 383.067,262.650 382.999 C 263.026 382.932,263.449 382.778,263.590 382.657 C 263.731 382.536,264.154 382.381,264.530 382.314 C 264.906 382.247,265.291 382.133,265.385 382.061 C 265.479 381.989,265.921 381.825,266.368 381.697 C 266.814 381.569,267.179 381.412,267.179 381.350 C 267.179 381.287,267.519 381.184,267.935 381.122 C 268.350 381.060,268.776 380.905,268.881 380.779 C 268.986 380.652,269.358 380.495,269.707 380.430 C 270.056 380.365,270.419 380.255,270.513 380.186 C 270.607 380.116,271.011 379.966,271.410 379.852 C 271.810 379.738,272.137 379.577,272.137 379.495 C 272.137 379.413,272.458 379.292,272.851 379.226 C 273.244 379.159,273.824 378.960,274.139 378.783 C 274.454 378.606,274.824 378.462,274.962 378.462 C 275.101 378.462,275.214 378.391,275.214 378.306 C 275.214 378.220,275.517 378.098,275.888 378.036 C 276.258 377.973,276.647 377.819,276.752 377.692 C 276.857 377.566,277.246 377.411,277.617 377.349 C 277.987 377.286,278.291 377.165,278.291 377.079 C 278.291 376.993,278.449 376.923,278.643 376.923 C 278.836 376.923,278.947 376.846,278.889 376.752 C 278.829 376.655,278.973 376.581,279.221 376.581 C 279.461 376.581,279.658 376.508,279.658 376.418 C 279.658 376.328,279.922 376.205,280.245 376.145 C 280.567 376.084,280.869 375.937,280.915 375.817 C 280.961 375.697,281.270 375.548,281.602 375.485 C 281.934 375.423,282.729 375.107,283.368 374.783 C 284.007 374.459,284.584 374.193,284.651 374.191 C 284.717 374.189,285.161 373.958,285.637 373.678 C 286.113 373.397,286.700 373.118,286.940 373.057 C 287.181 372.997,287.416 372.850,287.462 372.730 C 287.507 372.610,287.809 372.463,288.131 372.402 C 288.454 372.342,288.718 372.231,288.718 372.156 C 288.718 372.082,289.026 371.919,289.402 371.795 C 289.778 371.671,290.085 371.513,290.085 371.444 C 290.085 371.375,290.297 371.266,290.556 371.202 C 290.814 371.137,291.141 370.984,291.282 370.862 C 291.423 370.739,291.731 370.580,291.966 370.508 C 292.477 370.352,293.737 369.581,293.818 369.376 C 293.849 369.296,294.003 369.229,294.160 369.227 C 294.316 369.225,294.637 369.073,294.872 368.889 C 295.107 368.705,295.395 368.553,295.513 368.551 C 295.630 368.549,295.726 368.470,295.726 368.376 C 295.726 368.282,295.842 368.205,295.983 368.205 C 296.124 368.205,296.393 368.051,296.581 367.863 C 296.769 367.675,297.019 367.518,297.137 367.514 C 297.254 367.510,297.735 367.277,298.205 366.995 C 298.675 366.714,299.310 366.370,299.615 366.231 C 299.921 366.092,300.171 365.911,300.171 365.828 C 300.171 365.746,300.377 365.626,300.628 365.563 C 300.880 365.500,301.484 365.184,301.971 364.861 C 302.458 364.538,302.913 364.274,302.982 364.274 C 303.180 364.274,305.128 362.871,305.128 362.729 C 305.128 362.659,305.335 362.549,305.588 362.486 C 305.988 362.385,306.929 361.828,307.179 361.543 C 307.226 361.490,307.476 361.353,307.735 361.240 C 307.994 361.126,308.205 360.954,308.205 360.858 C 308.205 360.762,308.317 360.684,308.453 360.684 C 308.589 360.684,308.762 360.586,308.838 360.466 C 308.913 360.347,309.186 360.156,309.444 360.043 C 309.703 359.929,309.915 359.758,309.915 359.662 C 309.915 359.566,310.065 359.487,310.248 359.487 C 310.431 359.487,310.643 359.391,310.718 359.273 C 310.793 359.156,311.059 358.954,311.309 358.825 C 311.559 358.697,312.006 358.370,312.303 358.099 C 312.599 357.828,312.917 357.607,313.010 357.607 C 313.102 357.607,313.368 357.416,313.601 357.183 C 313.834 356.950,314.062 356.759,314.108 356.759 C 314.241 356.757,315.096 356.185,315.460 355.856 C 315.642 355.691,315.857 355.556,315.937 355.556 C 316.017 355.556,316.253 355.396,316.460 355.201 C 316.668 355.006,317.338 354.492,317.949 354.059 C 318.560 353.627,319.299 353.075,319.591 352.833 C 320.383 352.177,320.664 351.956,321.880 351.032 C 323.083 350.119,323.371 349.882,324.256 349.076 C 324.576 348.785,324.892 348.547,324.959 348.547 C 325.027 348.547,325.265 348.368,325.490 348.149 C 325.714 347.929,326.341 347.393,326.883 346.956 C 327.424 346.519,328.095 345.929,328.373 345.645 C 328.650 345.361,328.918 345.128,328.969 345.128 C 329.019 345.128,329.201 344.994,329.374 344.829 C 329.547 344.665,330.207 344.068,330.840 343.504 C 331.474 342.940,332.467 342.033,333.047 341.488 C 333.628 340.943,334.427 340.212,334.824 339.864 C 335.221 339.516,335.548 339.135,335.551 339.017 C 335.553 338.900,335.632 338.803,335.726 338.803 C 335.963 338.803,338.632 336.154,338.632 335.919 C 338.632 335.813,338.715 335.726,338.817 335.726 C 339.057 335.726,340.513 334.271,340.513 334.031 C 340.513 333.929,340.596 333.846,340.697 333.846 C 340.896 333.846,342.552 332.177,344.188 330.326 C 344.752 329.688,345.485 328.892,345.817 328.557 C 346.149 328.223,346.803 327.491,347.270 326.932 C 347.737 326.373,348.445 325.565,348.843 325.137 C 349.241 324.709,349.568 324.263,349.570 324.145 C 349.571 324.028,349.639 323.932,349.719 323.932 C 349.853 323.932,351.824 321.670,352.222 321.058 C 352.428 320.743,352.995 320.040,353.291 319.733 C 353.408 319.611,353.504 319.391,353.504 319.243 C 353.504 319.095,353.601 318.974,353.720 318.974 C 353.838 318.974,354.703 317.929,355.643 316.650 C 356.582 315.372,357.600 314.045,357.905 313.702 C 358.210 313.358,358.460 312.981,358.461 312.863 C 358.461 312.746,358.529 312.650,358.612 312.650 C 358.694 312.650,358.855 312.424,358.969 312.149 C 359.083 311.874,359.279 311.609,359.404 311.561 C 359.529 311.513,359.846 311.104,360.108 310.652 C 360.370 310.199,360.953 309.318,361.403 308.694 C 361.854 308.070,362.222 307.493,362.222 307.412 C 362.223 307.285,362.476 306.943,363.245 306.033 C 363.340 305.919,363.419 305.787,363.419 305.739 C 363.419 305.653,364.447 304.099,364.616 303.932 C 364.663 303.885,364.878 303.500,365.095 303.077 C 365.311 302.654,365.793 301.885,366.166 301.368 C 366.538 300.850,367.002 300.100,367.197 299.701 C 367.392 299.301,367.622 298.974,367.708 298.974 C 367.793 298.974,367.863 298.886,367.863 298.778 C 367.863 298.480,368.739 296.752,368.890 296.752 C 368.963 296.752,369.076 296.541,369.141 296.282 C 369.205 296.024,369.387 295.681,369.544 295.521 C 370.118 294.935,370.266 294.697,370.366 294.194 C 370.423 293.912,370.531 293.719,370.607 293.766 C 370.683 293.813,370.973 293.408,371.252 292.866 C 371.530 292.324,371.882 291.650,372.032 291.368 C 372.182 291.085,372.306 290.720,372.307 290.556 C 372.307 290.391,372.417 290.256,372.551 290.256 C 372.686 290.256,372.847 290.010,372.914 289.701 C 372.980 289.395,373.082 289.107,373.141 289.060 C 373.278 288.950,373.673 288.262,373.974 287.607 C 374.104 287.325,374.282 286.979,374.370 286.838 C 374.662 286.373,375.385 284.811,375.385 284.647 C 375.385 284.559,375.495 284.395,375.630 284.283 C 375.765 284.171,375.925 283.853,375.986 283.578 C 376.046 283.302,376.158 283.077,376.234 283.077 C 376.310 283.077,376.475 282.731,376.600 282.308 C 376.725 281.885,376.880 281.538,376.945 281.538 C 377.011 281.538,377.115 281.237,377.177 280.868 C 377.240 280.499,377.400 280.156,377.534 280.104 C 377.668 280.053,377.779 279.912,377.781 279.792 C 377.782 279.671,378.089 278.957,378.462 278.205 C 378.834 277.453,379.141 276.673,379.142 276.471 C 379.144 276.270,379.253 276.063,379.386 276.013 C 379.518 275.962,379.680 275.665,379.747 275.353 C 379.814 275.042,379.928 274.709,380.000 274.615 C 380.072 274.521,380.184 274.200,380.248 273.901 C 380.312 273.602,380.474 273.265,380.609 273.153 C 380.744 273.041,380.855 272.839,380.855 272.703 C 380.855 272.568,381.047 272.036,381.282 271.522 C 381.517 271.009,381.709 270.480,381.709 270.347 C 381.709 270.214,381.780 270.062,381.865 270.009 C 381.951 269.956,382.072 269.611,382.135 269.243 C 382.197 268.875,382.350 268.535,382.474 268.487 C 382.599 268.439,382.754 268.087,382.818 267.705 C 382.883 267.323,383.006 266.967,383.092 266.914 C 383.178 266.861,383.248 266.706,383.248 266.569 C 383.248 266.433,383.396 265.995,383.577 265.596 C 383.758 265.198,383.954 264.629,384.014 264.333 C 384.074 264.037,384.272 263.501,384.454 263.143 C 384.637 262.785,384.786 262.320,384.786 262.111 C 384.786 261.901,384.854 261.688,384.938 261.636 C 385.021 261.585,385.140 261.202,385.202 260.785 C 385.265 260.369,385.419 259.942,385.545 259.838 C 385.672 259.733,385.826 259.303,385.889 258.882 C 385.953 258.462,386.115 257.907,386.252 257.649 C 386.388 257.391,386.547 256.889,386.605 256.535 C 386.664 256.180,386.775 255.851,386.852 255.803 C 386.929 255.755,387.044 255.262,387.107 254.706 C 387.170 254.150,387.317 253.659,387.433 253.615 C 387.549 253.570,387.696 253.145,387.759 252.671 C 387.822 252.197,387.948 251.763,388.039 251.706 C 388.130 251.650,388.205 251.382,388.205 251.111 C 388.205 250.840,388.282 250.571,388.376 250.513 C 388.470 250.455,388.547 250.147,388.547 249.829 C 388.547 249.511,388.615 249.209,388.698 249.158 C 388.781 249.106,388.904 248.626,388.971 248.091 C 389.037 247.556,389.200 246.954,389.331 246.753 C 389.463 246.552,389.620 246.008,389.681 245.544 C 389.741 245.080,389.847 244.624,389.916 244.530 C 389.985 244.436,390.095 243.859,390.162 243.248 C 390.228 242.637,390.383 242.021,390.505 241.880 C 390.628 241.739,390.807 241.047,390.903 240.342 C 390.999 239.637,391.197 238.598,391.344 238.034 C 391.491 237.470,391.614 236.774,391.618 236.487 C 391.621 236.200,391.697 235.892,391.787 235.802 C 391.877 235.712,392.005 234.986,392.070 234.187 C 392.136 233.388,392.287 232.581,392.405 232.393 C 392.524 232.205,392.675 231.359,392.741 230.513 C 392.807 229.667,392.920 228.897,392.992 228.803 C 393.064 228.709,393.169 228.132,393.226 227.521 C 393.282 226.910,393.409 225.910,393.507 225.299 C 393.797 223.498,393.989 221.539,394.004 220.224 C 394.011 219.548,394.089 218.950,394.176 218.896 C 394.749 218.542,395.426 189.204,394.874 188.652 C 394.777 188.554,394.696 187.541,394.690 186.333 C 394.674 183.196,394.439 180.112,394.210 180.036 C 394.091 179.996,394.012 179.473,394.004 178.661 C 393.986 176.945,393.803 175.292,393.157 171.026 C 393.072 170.462,392.903 169.208,392.783 168.240 C 392.663 167.273,392.477 166.427,392.371 166.360 C 392.265 166.294,392.124 165.547,392.058 164.701 C 391.992 163.855,391.867 163.089,391.781 163.000 C 391.694 162.911,391.621 162.565,391.618 162.231 C 391.614 161.897,391.492 161.162,391.345 160.598 C 391.198 160.034,390.989 159.026,390.881 158.357 C 390.772 157.688,390.596 157.035,390.489 156.904 C 390.382 156.773,390.240 156.109,390.173 155.427 C 390.106 154.746,389.992 154.188,389.919 154.188 C 389.847 154.188,389.738 153.744,389.676 153.202 C 389.615 152.660,389.453 152.001,389.317 151.738 C 389.180 151.475,389.018 150.880,388.957 150.416 C 388.895 149.952,388.778 149.573,388.696 149.573 C 388.614 149.573,388.547 149.308,388.547 148.984 C 388.547 148.661,388.470 148.349,388.376 148.291 C 388.282 148.232,388.205 147.963,388.205 147.692 C 388.205 147.421,388.135 147.157,388.050 147.104 C 387.965 147.051,387.842 146.604,387.778 146.111 C 387.713 145.617,387.561 145.058,387.441 144.868 C 387.321 144.678,387.165 144.181,387.094 143.764 C 387.024 143.346,386.904 142.886,386.828 142.742 C 386.752 142.597,386.591 142.113,386.470 141.667 C 386.349 141.220,386.200 140.855,386.139 140.855 C 386.077 140.855,385.977 140.478,385.916 140.018 C 385.855 139.558,385.697 139.092,385.565 138.983 C 385.434 138.873,385.273 138.461,385.208 138.067 C 385.143 137.673,385.030 137.274,384.957 137.179 C 384.885 137.085,384.770 136.676,384.703 136.270 C 384.636 135.864,384.475 135.491,384.346 135.441 C 384.214 135.391,384.061 134.980,383.998 134.509 C 383.937 134.046,383.820 133.626,383.738 133.576 C 383.657 133.525,383.590 133.335,383.590 133.152 C 383.590 132.970,383.513 132.821,383.419 132.821 C 383.325 132.821,383.248 132.633,383.248 132.403 C 383.248 132.174,383.178 131.943,383.092 131.890 C 383.006 131.836,382.885 131.490,382.822 131.120 C 382.759 130.750,382.607 130.363,382.483 130.260 C 382.359 130.157,382.205 129.788,382.139 129.438 C 382.074 129.089,381.965 128.726,381.896 128.632 C 381.827 128.538,381.668 128.135,381.542 127.735 C 381.416 127.335,381.248 127.009,381.169 127.009 C 381.090 127.009,381.023 126.874,381.020 126.709 C 381.017 126.545,380.826 126.026,380.595 125.556 C 380.363 125.085,380.173 124.566,380.173 124.402 C 380.172 124.237,380.103 124.103,380.019 124.103 C 379.935 124.103,379.818 123.841,379.758 123.521 C 379.698 123.202,379.544 122.853,379.415 122.746 C 379.286 122.639,379.130 122.280,379.068 121.947 C 379.005 121.614,378.805 121.076,378.622 120.751 C 378.440 120.426,378.291 120.047,378.291 119.909 C 378.291 119.771,378.217 119.658,378.127 119.658 C 378.038 119.658,377.914 119.389,377.852 119.060 C 377.790 118.731,377.669 118.462,377.584 118.462 C 377.498 118.462,377.348 118.250,377.252 117.991 C 376.881 116.997,376.344 115.897,376.230 115.897 C 376.165 115.897,376.064 115.662,376.007 115.375 C 375.949 115.087,375.782 114.732,375.635 114.585 C 375.488 114.438,375.324 114.096,375.269 113.826 C 375.215 113.555,375.110 113.333,375.035 113.333 C 374.960 113.333,374.847 113.097,374.784 112.809 C 374.720 112.521,374.563 112.244,374.433 112.194 C 374.303 112.144,374.148 111.842,374.088 111.522 C 374.028 111.202,373.925 110.940,373.859 110.940 C 373.793 110.940,373.633 110.671,373.504 110.342 C 373.375 110.013,373.216 109.744,373.150 109.744 C 373.084 109.744,372.979 109.474,372.917 109.145 C 372.856 108.816,372.730 108.547,372.638 108.547 C 372.546 108.547,372.393 108.335,372.299 108.077 C 372.099 107.526,371.411 106.107,371.284 105.983 C 371.133 105.836,370.615 104.893,370.414 104.402 C 370.309 104.143,370.154 103.932,370.069 103.932 C 369.984 103.932,369.915 103.828,369.915 103.702 C 369.915 103.575,369.765 103.337,369.582 103.171 C 369.400 103.006,369.201 102.648,369.141 102.375 C 369.082 102.103,368.981 101.880,368.917 101.880 C 368.853 101.880,368.693 101.630,368.560 101.325 C 368.427 101.019,368.273 100.731,368.219 100.684 C 368.109 100.589,367.649 99.805,367.316 99.145 C 367.198 98.910,367.061 98.679,367.012 98.632 C 366.828 98.457,365.983 97.157,365.983 97.050 C 365.983 96.988,365.810 96.680,365.598 96.364 C 365.387 96.048,364.714 94.997,364.103 94.028 C 363.491 93.060,362.871 92.142,362.723 91.988 C 362.575 91.835,362.234 91.325,361.965 90.855 C 361.696 90.385,361.393 89.908,361.293 89.797 C 361.193 89.685,360.938 89.338,360.726 89.027 C 360.106 88.118,356.060 82.527,355.615 81.966 C 355.391 81.684,355.150 81.376,355.079 81.282 C 355.008 81.188,354.586 80.650,354.140 80.085 C 353.695 79.521,353.274 78.982,353.204 78.886 C 352.829 78.373,351.350 76.658,351.240 76.610 C 351.169 76.578,351.111 76.482,351.111 76.396 C 351.111 76.310,350.976 76.097,350.812 75.923 C 350.647 75.748,350.244 75.272,349.915 74.865 C 349.585 74.457,349.028 73.827,348.675 73.465 C 348.323 73.103,348.034 72.763,348.034 72.710 C 348.034 72.618,347.898 72.457,346.838 71.299 C 345.440 69.772,344.696 68.924,344.387 68.507 C 344.195 68.247,343.937 68.034,343.814 68.034 C 343.691 68.034,343.590 67.947,343.590 67.840 C 343.590 67.733,343.032 67.082,342.350 66.393 C 341.669 65.704,340.789 64.811,340.396 64.408 C 337.968 61.919,334.021 58.120,333.863 58.120 C 333.760 58.120,333.675 58.021,333.675 57.900 C 333.675 57.779,333.348 57.414,332.949 57.089 C 332.549 56.764,331.931 56.209,331.575 55.856 C 331.218 55.503,330.903 55.214,330.874 55.214 C 330.844 55.214,330.328 54.754,329.726 54.192 C 329.125 53.630,328.536 53.168,328.419 53.166 C 328.301 53.164,328.205 53.047,328.205 52.906 C 328.205 52.765,328.139 52.650,328.059 52.650 C 327.921 52.650,327.627 52.410,326.410 51.311 C 326.128 51.056,325.590 50.619,325.214 50.339 C 324.838 50.060,324.468 49.734,324.393 49.616 C 324.318 49.498,324.187 49.402,324.102 49.402 C 324.017 49.402,323.764 49.229,323.540 49.017 C 322.992 48.499,321.891 47.620,321.706 47.553 C 321.624 47.523,321.269 47.235,320.916 46.912 C 320.564 46.589,320.175 46.325,320.052 46.325 C 319.929 46.325,319.829 46.260,319.829 46.181 C 319.829 46.038,317.861 44.444,317.685 44.444 C 317.634 44.444,317.392 44.260,317.149 44.034 C 316.905 43.808,316.505 43.519,316.259 43.393 C 316.013 43.266,315.735 43.077,315.641 42.972 C 315.266 42.553,313.503 41.368,313.255 41.368 C 313.110 41.368,313.011 41.298,313.034 41.213 C 313.058 41.128,312.789 40.862,312.436 40.620 C 312.084 40.379,311.584 40.037,311.325 39.860 C 311.066 39.683,310.394 39.238,309.832 38.872 C 309.269 38.505,308.659 38.071,308.475 37.906 C 308.291 37.741,308.040 37.607,307.916 37.607 C 307.793 37.607,307.692 37.549,307.691 37.479 C 307.690 37.408,307.517 37.266,307.306 37.164 C 306.644 36.841,305.730 36.329,305.641 36.231 C 305.594 36.179,305.171 35.871,304.701 35.547 C 304.231 35.223,303.808 34.913,303.761 34.858 C 303.714 34.804,303.425 34.631,303.120 34.474 C 301.773 33.781,301.540 33.644,301.446 33.493 C 301.392 33.405,301.198 33.333,301.016 33.333 C 300.833 33.333,300.684 33.263,300.684 33.178 C 300.684 33.092,300.318 32.847,299.872 32.634 C 299.425 32.420,299.021 32.197,298.974 32.137 C 298.927 32.077,298.543 31.855,298.120 31.643 C 297.697 31.432,296.705 30.880,295.915 30.416 C 295.126 29.952,294.400 29.573,294.302 29.573 C 294.204 29.573,293.966 29.433,293.772 29.262 C 293.578 29.092,293.073 28.805,292.650 28.626 C 292.226 28.447,291.842 28.249,291.795 28.186 C 291.748 28.124,290.863 27.642,289.829 27.117 C 288.795 26.592,287.856 26.083,287.742 25.987 C 287.629 25.891,287.475 25.814,287.400 25.817 C 287.326 25.819,286.803 25.592,286.239 25.312 C 284.216 24.306,282.211 23.419,281.963 23.419 C 281.823 23.419,281.709 23.361,281.709 23.290 C 281.709 23.122,280.917 22.773,280.223 22.634 C 279.924 22.575,279.641 22.423,279.593 22.298 C 279.544 22.173,279.232 22.019,278.898 21.956 C 278.564 21.894,278.291 21.774,278.291 21.690 C 278.291 21.607,278.172 21.538,278.026 21.538 C 277.881 21.538,277.401 21.346,276.959 21.111 C 276.518 20.876,275.983 20.684,275.771 20.684 C 275.558 20.684,275.385 20.613,275.385 20.526 C 275.385 20.439,275.096 20.275,274.744 20.162 C 274.391 20.048,274.022 19.892,273.923 19.814 C 273.824 19.737,273.414 19.620,273.011 19.556 C 272.608 19.492,272.241 19.342,272.196 19.223 C 272.150 19.105,271.852 18.959,271.534 18.899 C 271.215 18.840,270.745 18.682,270.490 18.549 C 270.234 18.417,269.961 18.347,269.884 18.395 C 269.807 18.443,269.744 18.400,269.744 18.301 C 269.744 18.201,269.594 18.120,269.412 18.120 C 269.229 18.120,269.037 18.050,268.984 17.965 C 268.932 17.880,268.504 17.757,268.034 17.692 C 267.500 17.619,267.179 17.490,267.179 17.349 C 267.179 17.218,266.880 17.073,266.460 17.002 C 266.064 16.936,265.621 16.822,265.477 16.751 C 264.860 16.447,263.287 15.894,262.735 15.788 C 262.406 15.725,262.093 15.607,262.040 15.526 C 261.986 15.446,261.486 15.287,260.929 15.173 C 260.371 15.060,259.872 14.908,259.820 14.835 C 259.768 14.763,259.345 14.653,258.880 14.591 C 258.415 14.529,257.976 14.380,257.904 14.260 C 257.833 14.140,257.351 13.988,256.834 13.924 C 256.316 13.859,255.851 13.738,255.800 13.655 C 255.748 13.572,255.485 13.504,255.214 13.504 C 254.943 13.504,254.673 13.427,254.615 13.333 C 254.557 13.239,254.284 13.162,254.007 13.162 C 253.731 13.162,253.504 13.085,253.504 12.991 C 253.504 12.897,253.293 12.820,253.034 12.819 C 252.243 12.815,251.284 12.614,251.373 12.469 C 251.473 12.308,251.142 12.202,250.085 12.054 C 249.662 11.995,249.162 11.883,248.974 11.806 C 248.786 11.729,248.133 11.573,247.522 11.459 C 246.911 11.345,246.373 11.190,246.325 11.116 C 246.278 11.042,245.739 10.925,245.128 10.856 C 244.517 10.787,243.935 10.665,243.834 10.584 C 243.734 10.503,243.080 10.350,242.381 10.243 C 241.683 10.137,240.990 9.988,240.842 9.914 C 240.694 9.839,239.963 9.723,239.218 9.656 C 238.473 9.588,237.748 9.433,237.607 9.311 C 237.464 9.188,236.646 9.035,235.766 8.967 C 234.894 8.899,234.139 8.777,234.089 8.696 C 234.038 8.614,233.621 8.547,233.162 8.547 C 232.703 8.547,232.280 8.470,232.222 8.376 C 232.164 8.282,231.741 8.205,231.282 8.205 C 230.823 8.205,230.405 8.136,230.353 8.052 C 230.301 7.967,229.200 7.842,227.907 7.774 C 226.495 7.699,225.507 7.573,225.434 7.459 C 225.306 7.256,223.181 7.048,220.993 7.023 C 220.270 7.015,219.638 6.944,219.589 6.865 C 219.466 6.664,214.454 6.424,210.256 6.416 C 207.695 6.412,206.691 6.353,206.526 6.197 C 206.308 5.990,198.317 5.909,197.308 6.104 M210.598 40.317 C 213.739 40.496,216.597 40.731,219.316 41.033 C 223.279 41.474,230.777 42.651,233.419 43.248 C 233.795 43.333,235.026 43.602,236.154 43.847 C 237.282 44.092,238.667 44.408,239.231 44.550 C 239.795 44.692,240.857 44.957,241.592 45.139 C 248.713 46.903,259.102 50.489,265.517 53.398 C 266.061 53.645,266.534 53.846,266.569 53.846 C 266.671 53.846,269.463 55.156,271.880 56.338 C 276.048 58.375,280.728 60.948,285.641 63.902 C 307.844 77.252,329.509 100.136,341.664 123.077 C 343.783 127.076,346.016 131.592,347.159 134.188 C 347.842 135.739,348.510 137.251,348.645 137.548 C 348.780 137.845,349.166 138.807,349.503 139.685 C 349.841 140.563,350.220 141.513,350.345 141.795 C 351.065 143.415,353.709 151.191,354.675 154.530 C 355.432 157.149,356.791 162.302,357.086 163.675 C 357.423 165.242,358.168 168.861,358.309 169.615 C 358.393 170.062,358.537 170.831,358.629 171.325 C 358.904 172.807,359.660 177.762,359.848 179.316 C 360.239 182.560,360.347 183.695,360.676 188.034 C 361.354 196.977,361.057 210.285,360.004 218.120 C 359.922 218.731,359.763 219.923,359.650 220.769 C 359.538 221.615,359.297 223.231,359.115 224.359 C 358.933 225.487,358.719 226.833,358.638 227.350 C 358.214 230.077,356.315 238.380,355.217 242.308 C 354.431 245.121,352.694 250.604,352.070 252.244 C 351.931 252.608,351.498 253.791,351.108 254.872 C 349.397 259.610,346.870 265.417,344.115 270.940 C 342.783 273.609,341.174 276.661,340.510 277.774 C 340.257 278.199,339.627 279.239,339.111 280.085 C 338.595 280.932,337.978 281.970,337.741 282.393 C 336.793 284.082,332.219 290.979,330.939 292.650 C 330.686 292.979,329.877 294.056,329.140 295.043 C 325.584 299.807,322.181 303.842,317.750 308.546 C 306.028 320.988,293.261 330.828,277.778 339.352 C 274.509 341.152,263.670 346.325,263.168 346.325 C 263.116 346.325,262.709 346.488,262.263 346.687 C 261.181 347.170,260.608 347.404,259.487 347.821 C 258.970 348.014,257.932 348.405,257.179 348.690 C 256.427 348.975,255.004 349.488,254.017 349.829 C 253.030 350.169,252.030 350.516,251.795 350.599 C 251.560 350.682,250.444 351.028,249.316 351.369 C 248.188 351.710,247.073 352.056,246.838 352.137 C 246.421 352.281,245.507 352.540,243.590 353.057 C 241.072 353.737,240.872 353.785,234.615 355.224 C 233.998 355.366,230.705 355.972,228.162 356.411 C 209.423 359.650,189.321 359.346,170.769 355.542 C 169.782 355.340,168.667 355.116,168.291 355.046 C 167.052 354.815,163.282 353.893,159.915 352.998 C 153.990 351.423,143.742 347.859,139.237 345.807 C 138.857 345.634,138.047 345.269,137.436 344.995 C 136.825 344.722,135.748 344.239,135.043 343.922 C 129.664 341.504,120.745 336.653,116.854 334.029 C 116.187 333.579,115.103 332.882,114.444 332.481 C 105.771 327.190,93.768 316.959,84.161 306.667 C 74.231 296.028,62.133 277.773,57.134 265.887 C 56.934 265.411,56.508 264.449,56.188 263.750 C 54.211 259.435,50.887 250.552,49.540 245.983 C 48.270 241.681,47.077 237.213,46.640 235.128 C 46.542 234.658,46.401 234.004,46.327 233.675 C 46.099 232.658,45.138 227.832,44.958 226.795 C 44.401 223.603,44.222 222.393,43.861 219.402 C 43.324 214.952,42.979 211.255,42.783 207.863 C 42.611 204.882,42.611 193.559,42.783 190.684 C 43.038 186.419,43.765 179.327,44.282 176.068 C 44.825 172.640,45.821 167.132,46.152 165.726 C 46.241 165.350,46.585 163.889,46.918 162.479 C 54.111 131.963,70.913 103.278,93.935 82.209 C 100.870 75.863,112.140 67.273,117.692 64.100 C 117.974 63.939,119.821 62.857,121.795 61.697 C 125.847 59.314,134.261 55.025,137.350 53.767 C 138.479 53.307,139.863 52.725,140.427 52.472 C 140.991 52.219,141.645 51.954,141.880 51.881 C 142.115 51.809,142.615 51.614,142.991 51.447 C 143.368 51.280,144.444 50.860,145.385 50.514 C 146.325 50.167,147.248 49.817,147.436 49.736 C 148.362 49.334,153.086 47.771,156.496 46.739 C 157.624 46.397,158.739 46.051,158.974 45.970 C 159.768 45.694,166.052 44.145,168.291 43.673 C 172.412 42.803,173.979 42.518,178.205 41.866 C 181.736 41.322,183.013 41.172,188.205 40.688 C 190.226 40.500,192.611 40.336,193.504 40.324 C 194.397 40.312,195.628 40.242,196.239 40.169 C 197.648 40.000,206.663 40.093,210.598 40.317 M97.985 130.611 C 88.601 131.517,82.534 137.174,82.505 145.043 C 82.477 152.777,86.453 156.037,100.040 159.418 C 110.195 161.945,112.740 163.495,113.102 167.375 C 114.056 177.586,98.054 180.637,86.040 172.534 C 83.423 170.769,82.439 170.732,81.592 172.369 C 78.978 177.425,93.550 183.453,104.444 181.821 C 114.767 180.275,120.766 173.044,118.636 164.715 C 117.291 159.455,113.872 157.396,101.004 154.094 C 91.146 151.564,88.596 149.781,88.407 145.288 C 88.126 138.570,93.496 134.933,102.755 135.572 C 106.895 135.857,109.614 136.911,113.342 139.675 C 116.200 141.794,117.488 141.906,118.305 140.106 C 119.136 138.276,118.244 136.709,115.120 134.512 C 110.767 131.451,104.368 129.994,97.985 130.611 M219.212 130.760 C 218.566 130.914,218.013 131.287,217.634 131.822 C 217.380 132.180,217.342 133.283,217.265 142.393 L 217.179 152.564 216.513 151.474 C 212.041 144.162,199.853 143.827,194.135 150.859 C 187.788 158.664,188.806 172.771,196.154 178.829 C 202.336 183.926,213.377 182.554,216.555 176.294 C 217.185 175.053,217.265 175.205,217.265 177.639 C 217.266 180.146,217.444 180.779,218.331 181.430 C 219.526 182.306,221.901 181.801,222.646 180.513 C 223.049 179.814,223.293 134.770,222.903 132.892 C 222.563 131.252,220.981 130.338,219.212 130.760 M130.781 136.026 C 129.506 136.676,129.493 136.735,129.437 141.978 L 129.386 146.667 126.653 146.667 C 122.846 146.667,122.051 147.071,122.051 149.011 C 122.051 150.824,123.018 151.280,126.872 151.281 L 129.385 151.282 129.442 161.923 C 129.497 172.274,129.509 172.601,129.875 173.905 C 131.341 179.136,134.818 181.459,141.718 181.818 C 144.965 181.987,145.983 181.457,145.983 179.598 C 145.983 177.971,145.315 177.508,142.607 177.256 C 137.890 176.817,136.197 175.627,135.451 172.222 C 135.279 171.441,135.224 168.820,135.220 161.239 L 135.214 151.282 139.274 151.281 C 144.574 151.280,145.401 151.008,145.584 149.201 C 145.807 147.012,144.983 146.667,139.545 146.667 L 135.238 146.667 135.183 142.063 C 135.122 136.938,135.133 136.985,133.848 136.111 C 133.135 135.626,131.646 135.585,130.781 136.026 M315.568 136.026 C 314.293 136.676,314.279 136.735,314.223 141.978 L 314.173 146.667 311.440 146.667 C 307.632 146.667,306.838 147.071,306.838 149.011 C 306.838 150.824,307.805 151.280,311.658 151.281 L 314.171 151.282 314.228 161.923 C 314.284 172.274,314.295 172.601,314.661 173.905 C 316.128 179.136,319.604 181.459,326.504 181.818 C 329.751 181.987,330.769 181.457,330.769 179.598 C 330.769 177.971,330.102 177.508,327.393 177.256 C 322.676 176.817,320.984 175.627,320.237 172.222 C 320.066 171.441,320.011 168.820,320.006 161.239 L 320.000 151.282 324.060 151.281 C 329.361 151.280,330.187 151.008,330.371 149.201 C 330.593 147.012,329.770 146.667,324.331 146.667 L 320.025 146.667 319.970 142.063 C 319.908 136.938,319.919 136.985,318.634 136.111 C 317.922 135.626,316.433 135.585,315.568 136.026 M245.016 146.054 C 236.755 147.627,231.733 154.459,231.747 164.103 C 231.762 174.147,236.848 180.455,246.024 181.811 C 254.896 183.122,265.930 177.653,261.918 173.932 C 261.146 173.216,260.602 173.343,257.190 175.036 C 253.503 176.865,252.731 177.093,249.815 177.214 C 242.300 177.528,238.459 173.948,237.534 165.769 L 237.442 164.957 249.413 164.957 C 264.266 164.957,263.030 165.334,262.857 160.860 C 262.456 150.511,254.831 144.184,245.016 146.054 M285.789 146.136 C 282.400 146.877,279.623 148.717,277.918 151.351 L 277.265 152.361 277.265 150.234 C 277.265 146.916,276.528 145.892,274.233 146.023 C 273.028 146.092,272.431 146.434,271.880 147.368 C 271.545 147.938,271.538 148.256,271.538 163.932 C 271.538 179.607,271.545 179.926,271.880 180.495 C 272.916 182.253,275.755 182.381,276.864 180.720 C 277.238 180.160,277.240 180.124,277.310 169.780 C 277.389 158.272,277.377 158.403,278.556 155.952 C 281.544 149.741,292.115 148.641,294.775 154.265 C 295.757 156.341,295.771 156.530,295.851 168.823 C 295.935 181.680,295.840 180.888,297.380 181.569 C 298.910 182.246,300.510 181.806,301.282 180.495 C 301.730 179.734,301.817 158.688,301.383 156.068 C 300.480 150.616,297.933 147.507,293.385 146.305 C 291.424 145.786,287.762 145.705,285.789 146.136 M153.175 146.282 C 151.797 146.985,151.887 146.154,151.827 158.773 C 151.761 172.443,151.847 173.368,153.478 176.496 C 157.293 183.812,170.160 183.940,174.880 176.709 L 175.521 175.727 175.582 177.906 C 175.632 179.700,175.703 180.184,175.980 180.645 C 177.009 182.351,180.074 182.229,180.919 180.448 C 181.361 179.516,181.340 148.232,180.897 147.363 C 179.953 145.511,176.904 145.515,175.812 147.368 C 175.483 147.927,175.467 148.346,175.377 158.547 C 175.274 170.307,175.326 169.767,174.078 172.155 C 171.184 177.692,162.105 178.985,158.930 174.312 C 157.697 172.499,157.712 172.666,157.612 159.658 C 157.524 148.238,157.513 147.934,157.170 147.351 C 156.404 146.046,154.589 145.561,153.175 146.282 M251.465 150.758 C 255.164 151.904,257.382 155.163,257.844 160.128 L 257.943 161.197 247.773 161.197 L 237.603 161.197 237.706 160.470 C 238.796 152.817,244.688 148.658,251.465 150.758 M209.658 151.051 C 214.877 152.373,217.687 157.956,217.086 165.812 C 216.520 173.212,212.857 177.173,206.581 177.173 C 199.503 177.173,195.673 172.097,195.945 163.077 C 196.223 153.901,201.755 149.050,209.658 151.051 M124.124 228.370 C 123.366 228.557,122.730 229.045,122.308 229.761 C 121.970 230.334,121.966 230.649,121.966 253.761 C 121.966 280.382,121.825 277.954,123.416 278.761 L 124.175 279.145 137.942 279.142 C 151.213 279.138,151.736 279.126,152.442 278.805 C 154.041 278.079,154.137 275.461,152.599 274.523 C 152.069 274.200,151.651 274.189,139.957 274.189 L 127.863 274.188 127.862 252.521 C 127.862 238.401,127.801 230.637,127.688 230.231 C 127.510 229.589,126.352 228.376,125.918 228.376 C 125.789 228.376,125.463 228.343,125.192 228.302 C 124.922 228.261,124.441 228.292,124.124 228.370 M243.590 228.873 C 239.213 229.792,239.991 235.942,244.484 235.940 C 246.834 235.938,248.363 234.559,248.372 232.430 C 248.384 229.993,246.153 228.335,243.590 228.873 M170.831 243.660 C 161.583 245.420,156.369 254.140,157.942 265.214 C 159.557 276.580,170.548 282.758,181.197 278.285 C 193.250 273.222,194.325 252.520,182.894 245.608 C 179.869 243.778,174.643 242.935,170.831 243.660 M210.023 243.684 C 202.835 245.112,198.271 250.673,197.606 258.811 C 196.749 269.298,202.370 277.065,211.453 277.945 C 217.113 278.494,222.499 276.103,224.540 272.137 C 224.913 271.411,225.041 271.275,225.097 271.538 C 225.281 272.392,224.973 279.783,224.709 280.840 C 222.856 288.268,214.810 289.976,204.483 285.133 C 201.383 283.680,200.692 283.646,199.952 284.912 C 197.888 288.448,204.829 292.203,213.846 292.429 C 224.025 292.684,229.354 288.756,230.592 280.085 C 230.914 277.831,230.822 245.718,230.492 245.022 C 229.620 243.184,226.441 243.074,225.369 244.845 C 225.099 245.291,225.032 245.795,224.983 247.755 L 224.924 250.125 224.402 249.208 C 221.952 244.898,215.802 242.536,210.023 243.684 M272.456 243.743 C 269.067 244.484,266.290 246.324,264.585 248.958 L 263.932 249.968 263.932 247.841 C 263.932 244.523,263.194 243.499,260.899 243.630 C 259.695 243.699,259.098 244.040,258.547 244.975 C 258.212 245.544,258.205 245.863,258.205 261.538 C 258.205 277.214,258.212 277.533,258.547 278.102 C 259.582 279.860,262.422 279.988,263.531 278.327 C 263.905 277.767,263.906 277.731,263.977 267.387 C 264.056 255.878,264.044 256.010,265.223 253.559 C 268.210 247.348,278.781 246.248,281.441 251.872 C 282.424 253.948,282.438 254.137,282.518 266.430 C 282.602 279.287,282.506 278.495,284.047 279.176 C 285.577 279.853,287.177 279.413,287.949 278.102 C 288.397 277.341,288.484 256.295,288.050 253.675 C 287.147 248.223,284.600 245.114,280.051 243.911 C 278.091 243.393,274.428 243.312,272.456 243.743 M243.080 243.889 C 241.460 244.703,241.506 244.137,241.571 262.479 C 241.623 277.217,241.631 277.533,241.970 278.120 C 242.956 279.827,245.874 279.937,246.962 278.308 L 247.350 277.727 247.350 261.538 L 247.350 245.350 246.962 244.769 C 246.455 244.009,245.591 243.590,244.530 243.590 C 244.057 243.590,243.409 243.724,243.080 243.889 M177.890 248.760 C 181.970 250.179,184.315 253.860,184.777 259.570 C 185.624 270.042,180.418 276.168,171.971 274.636 C 165.679 273.495,162.316 266.493,163.846 257.720 C 165.131 250.349,171.245 246.449,177.890 248.760 M215.866 248.382 C 221.770 249.123,224.831 253.311,224.857 260.684 C 224.886 268.781,221.114 273.214,214.202 273.209 C 207.542 273.203,203.722 268.988,203.472 261.368 C 203.207 253.298,206.995 248.580,214.022 248.227 C 214.259 248.215,215.089 248.285,215.866 248.382 " stroke="none" fill="#b4041b" fill-rule="evenodd"></path><path id="path1" d="M196.239 40.169 C 195.628 40.242,194.397 40.312,193.504 40.324 C 191.378 40.352,183.691 41.061,180.513 41.521 C 177.800 41.914,174.332 42.471,172.906 42.742 C 171.019 43.102,170.525 43.201,168.291 43.673 C 166.052 44.145,159.768 45.694,158.974 45.970 C 158.739 46.051,157.624 46.397,156.496 46.739 C 153.086 47.771,148.362 49.334,147.436 49.736 C 147.248 49.817,146.325 50.167,145.385 50.514 C 144.444 50.860,143.368 51.280,142.991 51.447 C 142.615 51.614,142.115 51.809,141.880 51.881 C 141.645 51.954,140.991 52.219,140.427 52.472 C 139.863 52.725,138.479 53.307,137.350 53.767 C 134.261 55.025,125.847 59.314,121.795 61.697 C 119.821 62.857,117.974 63.939,117.692 64.100 C 112.140 67.273,100.870 75.863,93.935 82.209 C 70.913 103.278,54.111 131.963,46.918 162.479 C 46.585 163.889,46.241 165.350,46.152 165.726 C 45.821 167.132,44.825 172.640,44.282 176.068 C 43.765 179.327,43.038 186.419,42.783 190.684 C 42.611 193.559,42.611 204.882,42.783 207.863 C 42.979 211.255,43.324 214.952,43.861 219.402 C 44.222 222.393,44.401 223.603,44.958 226.795 C 45.138 227.832,46.099 232.658,46.327 233.675 C 46.401 234.004,46.542 234.658,46.640 235.128 C 47.077 237.213,48.270 241.681,49.540 245.983 C 50.887 250.552,54.211 259.435,56.188 263.750 C 56.508 264.449,56.934 265.411,57.134 265.887 C 61.580 276.459,71.588 292.065,80.921 302.979 C 90.262 313.902,104.437 326.376,114.444 332.481 C 115.103 332.882,116.187 333.579,116.854 334.029 C 118.738 335.299,122.223 337.354,125.812 339.309 C 127.563 340.263,133.471 343.215,135.043 343.922 C 135.748 344.239,136.825 344.722,137.436 344.995 C 138.047 345.269,138.857 345.634,139.237 345.807 C 143.742 347.859,153.990 351.423,159.915 352.998 C 163.282 353.893,167.052 354.815,168.291 355.046 C 168.667 355.116,169.782 355.340,170.769 355.542 C 188.586 359.195,208.521 359.626,226.197 356.742 C 228.792 356.318,233.725 355.429,234.615 355.224 C 240.872 353.785,241.072 353.737,243.590 353.057 C 245.507 352.540,246.421 352.281,246.838 352.137 C 247.073 352.056,248.188 351.710,249.316 351.369 C 250.444 351.028,251.560 350.682,251.795 350.599 C 252.030 350.516,253.030 350.169,254.017 349.829 C 255.004 349.488,256.427 348.975,257.179 348.690 C 257.932 348.405,258.970 348.014,259.487 347.821 C 260.608 347.404,261.181 347.170,262.263 346.687 C 262.709 346.488,263.116 346.325,263.168 346.325 C 263.670 346.325,274.509 341.152,277.778 339.352 C 287.823 333.822,296.390 327.962,304.786 320.879 C 313.563 313.475,322.307 304.198,329.140 295.043 C 329.877 294.056,330.686 292.979,330.939 292.650 C 332.219 290.979,336.793 284.082,337.741 282.393 C 337.978 281.970,338.595 280.932,339.111 280.085 C 339.627 279.239,340.257 278.199,340.510 277.774 C 341.573 275.990,344.528 270.227,345.899 267.265 C 347.157 264.545,347.484 263.826,347.995 262.650 C 348.963 260.424,350.394 256.848,351.108 254.872 C 351.498 253.791,351.931 252.608,352.070 252.244 C 352.694 250.604,354.431 245.121,355.217 242.308 C 356.315 238.380,358.214 230.077,358.638 227.350 C 358.719 226.833,358.933 225.487,359.115 224.359 C 359.297 223.231,359.538 221.615,359.650 220.769 C 359.763 219.923,359.922 218.731,360.004 218.120 C 361.057 210.285,361.354 196.977,360.676 188.034 C 360.347 183.695,360.239 182.560,359.848 179.316 C 359.660 177.762,358.904 172.807,358.629 171.325 C 358.537 170.831,358.393 170.062,358.309 169.615 C 358.168 168.861,357.423 165.242,357.086 163.675 C 356.791 162.302,355.432 157.149,354.675 154.530 C 353.709 151.191,351.065 143.415,350.345 141.795 C 350.220 141.513,349.841 140.563,349.503 139.685 C 349.166 138.807,348.780 137.845,348.645 137.548 C 348.510 137.251,347.842 135.739,347.159 134.188 C 345.384 130.155,341.810 123.158,339.694 119.573 C 329.990 103.134,319.209 90.213,305.025 78.023 C 299.820 73.549,290.998 67.123,285.641 63.902 C 280.728 60.948,276.048 58.375,271.880 56.338 C 269.463 55.156,266.671 53.846,266.569 53.846 C 266.534 53.846,266.061 53.645,265.517 53.398 C 259.102 50.489,248.713 46.903,241.592 45.139 C 240.857 44.957,239.795 44.692,239.231 44.550 C 238.667 44.408,237.282 44.092,236.154 43.847 C 235.026 43.602,233.795 43.333,233.419 43.248 C 230.777 42.651,223.279 41.474,219.316 41.033 C 212.423 40.267,199.474 39.782,196.239 40.169 M103.614 130.602 C 112.434 131.473,120.002 136.369,118.305 140.106 C 117.488 141.906,116.200 141.794,113.342 139.675 C 104.090 132.815,90.240 134.497,88.539 142.686 C 87.280 148.750,90.047 151.282,101.004 154.094 C 113.872 157.396,117.291 159.455,118.636 164.715 C 120.766 173.044,114.767 180.275,104.444 181.821 C 93.550 183.453,78.978 177.425,81.592 172.369 C 82.439 170.732,83.423 170.769,86.040 172.534 C 98.054 180.637,114.056 177.586,113.102 167.375 C 112.740 163.495,110.195 161.945,100.040 159.418 C 86.453 156.037,82.477 152.777,82.505 145.043 C 82.540 135.531,91.495 129.406,103.614 130.602 M220.855 130.783 C 221.935 131.031,222.675 131.793,222.903 132.892 C 223.293 134.770,223.049 179.814,222.646 180.513 C 221.901 181.801,219.526 182.306,218.331 181.430 C 217.444 180.779,217.266 180.146,217.265 177.639 C 217.265 175.205,217.185 175.053,216.555 176.294 C 213.377 182.554,202.336 183.926,196.154 178.829 C 188.806 172.771,187.788 158.664,194.135 150.859 C 199.853 143.827,212.041 144.162,216.513 151.474 L 217.179 152.564 217.265 142.393 C 217.342 133.283,217.380 132.180,217.634 131.822 C 218.013 131.287,218.566 130.914,219.212 130.760 C 219.949 130.584,219.990 130.585,220.855 130.783 M133.848 136.111 C 135.133 136.985,135.122 136.938,135.183 142.063 L 135.238 146.667 139.545 146.667 C 144.983 146.667,145.807 147.012,145.584 149.201 C 145.401 151.008,144.574 151.280,139.274 151.281 L 135.214 151.282 135.220 161.239 C 135.224 168.820,135.279 171.441,135.451 172.222 C 136.197 175.627,137.890 176.817,142.607 177.256 C 145.315 177.508,145.983 177.971,145.983 179.598 C 145.983 181.457,144.965 181.987,141.718 181.818 C 134.818 181.459,131.341 179.136,129.875 173.905 C 129.509 172.601,129.497 172.274,129.442 161.923 L 129.385 151.282 126.872 151.281 C 123.018 151.280,122.051 150.824,122.051 149.011 C 122.051 147.071,122.846 146.667,126.653 146.667 L 129.386 146.667 129.437 141.978 C 129.484 137.548,129.507 137.263,129.841 136.807 C 130.651 135.704,132.722 135.345,133.848 136.111 M318.634 136.111 C 319.919 136.985,319.908 136.938,319.970 142.063 L 320.025 146.667 324.331 146.667 C 329.770 146.667,330.593 147.012,330.371 149.201 C 330.187 151.008,329.361 151.280,324.060 151.281 L 320.000 151.282 320.006 161.239 C 320.011 168.820,320.066 171.441,320.237 172.222 C 320.984 175.627,322.676 176.817,327.393 177.256 C 330.102 177.508,330.769 177.971,330.769 179.598 C 330.769 181.457,329.751 181.987,326.504 181.818 C 319.604 181.459,316.128 179.136,314.661 173.905 C 314.295 172.601,314.284 172.274,314.228 161.923 L 314.171 151.282 311.658 151.281 C 307.805 151.280,306.838 150.824,306.838 149.011 C 306.838 147.071,307.632 146.667,311.440 146.667 L 314.173 146.667 314.223 141.978 C 314.271 137.548,314.293 137.263,314.628 136.807 C 315.437 135.704,317.508 135.345,318.634 136.111 M252.700 146.394 C 258.970 148.256,262.567 153.380,262.857 160.860 C 263.030 165.334,264.266 164.957,249.413 164.957 L 237.442 164.957 237.534 165.769 C 238.459 173.948,242.300 177.528,249.815 177.214 C 252.731 177.093,253.503 176.865,257.190 175.036 C 261.158 173.067,261.993 173.068,262.585 175.044 C 263.973 179.679,251.157 183.680,242.947 181.175 C 234.066 178.465,229.652 168.567,232.512 157.778 C 234.834 149.014,244.042 143.822,252.700 146.394 M293.385 146.305 C 297.933 147.507,300.480 150.616,301.383 156.068 C 301.817 158.688,301.730 179.734,301.282 180.495 C 300.510 181.806,298.910 182.246,297.380 181.569 C 295.840 180.888,295.935 181.680,295.851 168.823 C 295.771 156.530,295.757 156.341,294.775 154.265 C 292.115 148.641,281.544 149.741,278.556 155.952 C 277.377 158.403,277.389 158.272,277.310 169.780 C 277.240 180.124,277.238 180.160,276.864 180.720 C 275.755 182.381,272.916 182.253,271.880 180.495 C 271.545 179.926,271.538 179.607,271.538 163.932 C 271.538 148.256,271.545 147.938,271.880 147.368 C 272.431 146.434,273.028 146.092,274.233 146.023 C 276.528 145.892,277.265 146.916,277.265 150.234 L 277.265 152.361 277.918 151.351 C 280.845 146.828,287.345 144.708,293.385 146.305 M156.248 146.368 C 157.586 147.270,157.510 146.529,157.612 159.658 C 157.712 172.666,157.697 172.499,158.930 174.312 C 162.105 178.985,171.184 177.692,174.078 172.155 C 175.326 169.767,175.274 170.307,175.377 158.547 C 175.467 148.346,175.483 147.927,175.812 147.368 C 176.904 145.515,179.953 145.511,180.897 147.363 C 181.340 148.232,181.361 179.516,180.919 180.448 C 180.074 182.229,177.009 182.351,175.980 180.645 C 175.703 180.184,175.632 179.700,175.582 177.906 L 175.521 175.727 174.880 176.709 C 170.160 183.940,157.293 183.812,153.478 176.496 C 151.847 173.368,151.761 172.443,151.827 158.773 C 151.879 147.730,151.886 147.538,152.234 147.064 C 153.044 145.960,155.110 145.602,156.248 146.368 M246.243 150.427 C 241.515 151.282,238.511 154.816,237.706 160.470 L 237.603 161.197 247.773 161.197 L 257.943 161.197 257.844 160.128 C 257.196 153.160,252.561 149.285,246.243 150.427 M204.957 150.757 C 199.249 151.557,196.166 155.771,195.945 163.077 C 195.673 172.097,199.503 177.173,206.581 177.173 C 212.857 177.173,216.520 173.212,217.086 165.812 C 217.856 155.750,212.933 149.639,204.957 150.757 M125.918 228.376 C 126.352 228.376,127.510 229.589,127.688 230.231 C 127.801 230.637,127.862 238.401,127.862 252.521 L 127.863 274.188 139.957 274.189 C 151.651 274.189,152.069 274.200,152.599 274.523 C 154.137 275.461,154.041 278.079,152.442 278.805 C 151.736 279.126,151.213 279.138,137.942 279.142 L 124.175 279.145 123.416 278.761 C 121.825 277.954,121.966 280.382,121.966 253.761 C 121.966 230.649,121.970 230.334,122.308 229.761 C 122.919 228.724,124.083 228.135,125.192 228.302 C 125.463 228.343,125.789 228.376,125.918 228.376 M246.496 229.234 C 249.139 230.582,248.981 234.505,246.237 235.654 C 243.130 236.955,239.846 234.252,240.848 231.217 C 241.542 229.113,244.334 228.133,246.496 229.234 M178.632 243.898 C 187.268 246.213,192.058 254.577,190.611 264.814 C 189.001 276.208,178.956 282.397,168.158 278.649 C 154.606 273.945,153.981 250.210,167.265 244.739 C 170.593 243.369,175.345 243.017,178.632 243.898 M216.068 243.666 C 219.616 244.349,222.870 246.514,224.402 249.208 L 224.924 250.125 224.983 247.755 C 225.032 245.795,225.099 245.291,225.369 244.845 C 226.441 243.074,229.620 243.184,230.492 245.022 C 230.822 245.718,230.914 277.831,230.592 280.085 C 229.354 288.756,224.025 292.684,213.846 292.429 C 204.829 292.203,197.888 288.448,199.952 284.912 C 200.692 283.646,201.383 283.680,204.483 285.133 C 214.810 289.976,222.856 288.268,224.709 280.840 C 224.973 279.783,225.281 272.392,225.097 271.538 C 225.041 271.275,224.913 271.411,224.540 272.137 C 221.216 278.599,210.325 280.044,203.613 274.914 C 196.151 269.210,195.345 255.145,202.069 247.957 C 205.413 244.382,210.961 242.682,216.068 243.666 M280.051 243.911 C 284.600 245.114,287.147 248.223,288.050 253.675 C 288.484 256.295,288.397 277.341,287.949 278.102 C 287.177 279.413,285.577 279.853,284.047 279.176 C 282.506 278.495,282.602 279.287,282.518 266.430 C 282.438 254.137,282.424 253.948,281.441 251.872 C 278.781 246.248,268.210 247.348,265.223 253.559 C 264.044 256.010,264.056 255.878,263.977 267.387 C 263.906 277.731,263.905 277.767,263.531 278.327 C 262.422 279.988,259.582 279.860,258.547 278.102 C 258.212 277.533,258.205 277.214,258.205 261.538 C 258.205 245.863,258.212 245.544,258.547 244.975 C 259.098 244.040,259.695 243.699,260.899 243.630 C 263.194 243.499,263.932 244.523,263.932 247.841 L 263.932 249.968 264.585 248.958 C 267.512 244.435,274.012 242.314,280.051 243.911 M245.979 243.889 C 246.307 244.054,246.749 244.449,246.962 244.769 L 247.350 245.350 247.350 261.538 L 247.350 277.727 246.962 278.308 C 245.874 279.937,242.956 279.827,241.970 278.120 C 241.616 277.507,241.312 249.442,241.627 246.374 C 241.814 244.541,242.806 243.590,244.530 243.590 C 245.003 243.590,245.650 243.724,245.979 243.889 M171.624 248.460 C 166.402 249.641,163.590 254.219,163.590 261.538 C 163.590 270.426,167.719 275.238,174.974 274.806 C 180.893 274.454,184.236 270.584,184.776 263.459 C 185.576 252.926,179.999 246.566,171.624 248.460 M212.505 248.389 C 206.547 249.162,203.228 253.931,203.472 261.368 C 203.722 268.988,207.542 273.203,214.202 273.209 C 221.114 273.214,224.886 268.781,224.857 260.684 C 224.827 252.008,220.190 247.392,212.505 248.389 " stroke="none" fill="#fcbc24" fill-rule="evenodd"></path></g></svg>